<?xml version="1.0" encoding="utf-8"?>
<!-- Generator: Adobe Illustrator 21.0.2, SVG Export Plug-In . SVG Version: 6.00 Build 0)  -->
<svg version="1.1" id="Layer_1" xmlns="http://www.w3.org/2000/svg" xmlns:xlink="http://www.w3.org/1999/xlink" x="0px" y="0px"
	 viewBox="0 0 121 116" style="enable-background:new 0 0 121 116;" xml:space="preserve">
<style type="text/css">
	.st0{fill:#FFD000;}
	.st1{fill:#FFFFFF;}
</style>
<g>
	<circle class="st0" cx="60.5" cy="58" r="53.6"/>
	<path class="st1" d="M37.5,43.2c0.3-0.2,0.5-0.4,0.8-0.6c1.8-0.8,3.9-0.8,5.9-1.3c2.5-0.6,7.4,10.9,4.2,11.9
		c-1.2,0.4-4.8,0.9-5.8,1.6c-0.9,0.6-0.5,2.2,0.4,3.2c2.2,2.6,5.5,5.5,8.1,8.1c0.1,0.1,0.1,0.1,0.2,0.2c0.1,0.1,0.1,0.1,0.2,0.2h0
		c2.6,2.6,5.5,5.9,8.1,8.1c1,0.8,2.6,1.3,3.2,0.4c0.7-1,1.3-4.6,1.6-5.8c1-3.1,12.5,1.8,11.9,4.3c-0.5,1.9-0.5,4-1.3,5.9
		c-0.1,0.3-0.4,0.6-0.6,0.8c-4.2,6.6-14.2,7.4-21.8,1c-2.9-2.4-5.7-5-8.4-7.6l0,0c-0.1-0.1-0.1-0.1-0.2-0.2
		c-0.1-0.1-0.1-0.1-0.2-0.2l0,0c-2.6-2.7-5.1-5.5-7.6-8.4C30.1,57.4,31,47.4,37.5,43.2L37.5,43.2z M80.3,55.8l1.8-18.3
		c0.1-1.1-0.7-1.9-1.8-1.8L62,37.5c-1.1,0.1-1.4,0.9-0.6,1.6l5,5L56,54.4c-0.8,0.8-0.8,2.1,0,2.9l4.5,4.6c0.8,0.8,2.1,0.8,2.9,0
		l10.4-10.4l4.9,4.9C79.5,57.1,80.2,56.9,80.3,55.8L80.3,55.8z M57.3,42.3"/>
</g>
</svg>
