<?xml version="1.0" encoding="utf-8"?>
<!-- Generator: Adobe Illustrator 21.0.2, SVG Export Plug-In . SVG Version: 6.00 Build 0)  -->
<svg version="1.1" id="Layer_1" xmlns="http://www.w3.org/2000/svg" xmlns:xlink="http://www.w3.org/1999/xlink" x="0px" y="0px"
	 viewBox="0 0 121 116" style="enable-background:new 0 0 121 116;" xml:space="preserve">
<style type="text/css">
	.st0{fill:#FFD000;}
	.st1{fill:#FFFFFF;}
</style>
<g>
	<circle class="st0" cx="60.5" cy="58" r="53.6"/>
	<path class="st1" d="M64.4,65.8c-0.2-0.2-0.5-0.4-0.8-0.6c-0.6-0.3-1.3-0.5-1.9-0.7v5.1c1.1-0.1,2.3-0.5,2.9-1.5
		c0.3-0.5,0.3-1.1,0.2-1.6C64.7,66.3,64.6,66,64.4,65.8L64.4,65.8z M64.4,65.8"/>
	<path class="st1" d="M64.6,68.2C64.6,68.2,64.6,68.2,64.6,68.2C64.6,68.2,64.6,68.2,64.6,68.2L64.6,68.2z M64.6,68.2"/>
	<path class="st1" d="M56.7,57.6c-0.2,0.3-0.3,0.6-0.3,0.9c0,0.3,0,0.7,0.1,1c0.1,0.3,0.4,0.5,0.6,0.7c0.3,0.2,0.6,0.3,0.9,0.5
		c0.3,0.1,0.6,0.2,0.9,0.3v-4.6C58.1,56.5,57.2,56.9,56.7,57.6L56.7,57.6z M56.7,57.6"/>
	<path class="st1" d="M64.6,68.1C64.6,68.1,64.6,68.1,64.6,68.1C64.6,68.1,64.6,68.1,64.6,68.1L64.6,68.1z M64.6,68.1"/>
	<path class="st1" d="M63.5,40.2c4.4-3.7,7.3-11.9,5.5-12.2c-2.4-0.5-7.5,1.6-10,2c-3.5,0.4-7.4-3.8-9.6-1.5c-1.8,1.9,1.3,9,6,12
		C41.3,47.5,21.5,82.2,56,84.8C103.8,88.3,79.9,47,63.5,40.2L63.5,40.2z M67.6,67.7c-0.1,1.4-0.9,2.6-1.9,3.4
		c-1.1,0.9-2.6,1.3-4,1.4V74c0,0.4-0.2,0.8-0.5,1.1c-0.4,0.4-1,0.5-1.5,0.2c-0.5-0.2-0.8-0.7-0.8-1.3v-1.6c-0.2,0-0.5-0.1-0.7-0.2
		c-1.3-0.4-2.5-1.1-3.4-2.1c-0.4-0.5-0.8-1.1-1.1-1.8c-0.1-0.2-0.1-0.3-0.2-0.5c0-0.2-0.1-0.3-0.1-0.5c0-0.3,0-0.6,0.2-0.8
		c0.3-0.5,0.8-0.8,1.4-0.7c0.6,0,1,0.4,1.2,1c0.1,0.2,0.1,0.3,0.1,0.5c0.1,0.2,0.1,0.3,0.2,0.5c0.2,0.3,0.4,0.6,0.6,0.8
		c0.5,0.5,1.1,0.8,1.8,1v-5.6c-1.3-0.3-2.6-0.8-3.7-1.6c-0.5-0.4-1-0.9-1.2-1.5c-0.3-0.6-0.4-1.3-0.4-2c0-0.7,0.1-1.4,0.4-2
		c0.3-0.6,0.7-1.1,1.2-1.6c1-1,2.4-1.5,3.8-1.7v-1.6c0-0.4,0.2-0.8,0.5-1.1c0.4-0.4,1-0.5,1.5-0.2c0.5,0.2,0.8,0.7,0.8,1.3v1.5
		c0.2,0,0.4,0.1,0.5,0.1c1.4,0.2,2.7,0.8,3.7,1.8c0.5,0.5,0.9,1,1.1,1.6c0.1,0.2,0.1,0.3,0.2,0.5c0.1,0.2,0.1,0.3,0.1,0.5
		c0,0.3,0,0.6-0.1,0.8c-0.2,0.5-0.8,0.8-1.3,0.8c-0.6,0-1.1-0.4-1.3-0.9c-0.1-0.2-0.1-0.3-0.1-0.5c-0.1-0.2-0.1-0.3-0.2-0.4
		c-0.2-0.3-0.4-0.5-0.7-0.7c-0.6-0.4-1.2-0.6-1.9-0.8v5.3c0.8,0.2,1.6,0.4,2.4,0.7c1.2,0.5,2.3,1.2,2.9,2.3c-0.1-0.2-0.2-0.3,0,0
		c0.2,0.3,0.1,0.2,0,0C67.5,65.6,67.7,66.6,67.6,67.7L67.6,67.7z M67.6,67.7"/>
	<path class="st1" d="M64.5,68.2C64.5,68.2,64.5,68.2,64.5,68.2C64.5,68.2,64.5,68.2,64.5,68.2L64.5,68.2z M64.5,68.2"/>
</g>
</svg>
