<?xml version="1.0" encoding="utf-8"?>
<!-- Generator: Adobe Illustrator 21.0.2, SVG Export Plug-In . SVG Version: 6.00 Build 0)  -->
<svg version="1.1" id="Layer_1" xmlns="http://www.w3.org/2000/svg" xmlns:xlink="http://www.w3.org/1999/xlink" x="0px" y="0px"
	 viewBox="0 0 133 138" style="enable-background:new 0 0 133 138;" xml:space="preserve">
<style type="text/css">
	.st0{fill:#FFD000;}
	.st1{fill:#FFFFFF;}
</style>
<circle class="st0" cx="62.2" cy="81.2" r="53.6"/>
<path class="st1" d="M66.3,91.3C66.3,91.3,66.3,91.3,66.3,91.3C66.3,91.3,66.3,91.3,66.3,91.3L66.3,91.3z M66.3,91.3"/>
<path class="st1" d="M66.3,91.3C66.3,91.3,66.3,91.3,66.3,91.3C66.3,91.3,66.3,91.3,66.3,91.3L66.3,91.3z M66.3,91.3"/>
<g>
	<path class="st1" d="M80.3,65c4.6,4.6,7.1,10.6,7.1,17.1c0,6.5-2.5,12.5-7.1,17.1c-4.6,4.6-10.6,7.1-17.1,7.1s-12.5-2.5-17.1-7.1
		C41.6,94.7,39,88.6,39,82.1c0-6.5,2.5-12.5,7.1-17.1c4.6-4.6,10.6-7.1,17.1-7.1S75.8,60.5,80.3,65L80.3,65z M78.2,97.1
		c3-3,5-6.7,5.8-10.7c-0.6,0.9-1.2,1.3-1.6-0.8c-0.4-3.4-3.5-1.2-5.5-2.5c-2.1,1.4-6.8-2.7-6,1.9c1.2,2.1,6.6-2.8,3.9,1.6
		c-1.7,3.1-6.3,10-5.7,13.5c0.1,5.2-5.3,1.1-7.2-0.6c-1.2-3.4-0.4-9.5-3.7-11.2c-3.5-0.2-6.6-0.5-7.9-4.4c-0.8-2.8,0.9-7,3.9-7.7
		c4.4-2.8,6,3.3,10.2,3.4c1.3-1.4,4.8-1.8,5.1-3.3c-2.7-0.5,3.5-2.3-0.3-3.3c-2.1,0.2-3.4,2.1-2.3,3.7c-4,0.9-4.1-5.8-7.9-3.7
		c-0.1,3.3-6.2,1.1-2.1,0.4c1.4-0.6-2.3-2.4-0.3-2.1c1-0.1,4.3-1.2,3.4-2c1.9-1.2,3.4,2.8,5.2-0.1c1.3-2.2-0.5-2.6-2.2-1.5
		c-0.9-1,1.6-3.3,3.9-4.2c0.8-0.3,1.5-0.5,2-0.4c1.1,1.3,3.2,1.5,3.3-0.2c-2.8-1.3-5.9-2.1-9.1-2.1c-4.6,0-9,1.5-12.6,4.2
		c1,0.4,1.5,1,0.6,1.7c-0.7,2.2-3.7,5.1-6.3,4.7c-1.4,2.3-2.2,4.9-2.6,7.6c2.2,0.7,2.7,2.1,2.2,2.6c-1.1,1-1.8,2.3-2.1,3.8
		c0.7,4.3,2.7,8.3,5.9,11.5c4,4,9.3,6.2,15,6.2C68.9,103.3,74.2,101.1,78.2,97.1L78.2,97.1z M78.2,97.1"/>
</g>
<polygon class="st0" points="115.9,4 119.6,15.6 131.8,15.6 122,22.8 125.7,34.4 115.9,27.2 106,34.4 109.8,22.8 99.9,15.6 
	112.1,15.6 "/>
</svg>
