<?xml version="1.0" encoding="utf-8"?>
<!-- Generator: Adobe Illustrator 21.0.2, SVG Export Plug-In . SVG Version: 6.00 Build 0)  -->
<svg version="1.1" id="Layer_1" xmlns="http://www.w3.org/2000/svg" xmlns:xlink="http://www.w3.org/1999/xlink" x="0px" y="0px"
	 viewBox="0 0 121 116" style="enable-background:new 0 0 121 116;" xml:space="preserve">
<style type="text/css">
	.st0{fill:#FFD000;}
	.st1{fill:#FFFFFF;}
</style>
<g>
	<circle class="st0" cx="60.5" cy="58" r="53.6"/>
	<path class="st1" d="M70.4,43.4c-0.1-0.1-0.3-0.2-0.5-0.3l-11.6-3.6c-4.6-1.5-7.7,1.1-8.5,1.9c-0.5,0.5-0.8,1-1,1.4l-5.2,12.2
		c-0.3,0.7-0.2,1.6,0.3,2.5c0.7,1.3,1.9,2.3,3.3,2.6c1.6,0.4,3.3-0.1,4.6-1.4c0.3-0.3,0.6-0.7,0.8-1l1.7-3.2
		c0.3-0.5,0.7-1.1,1.1-1.5c1.5-1.5,2.2-0.8,2.5-0.5c2.6,2.5,16.2,16.2,16.2,16.2c0.5,0.5,0.4,1.4-0.2,2c-0.6,0.6-1.5,0.7-2,0.2
		l-3.8-3.8c-0.5-0.5-1.3-0.5-1.8,0c-0.5,0.5-0.5,1.3,0,1.8l3.8,3.8c0.5,0.5,0.4,1.4-0.2,2c-0.6,0.6-1.5,0.7-2,0.2l-3.8-3.8
		c-0.5-0.5-1.3-0.5-1.8,0c-0.5,0.5-0.5,1.3,0,1.8l3.8,3.8c0.5,0.5,0.4,1.4-0.2,2c-0.6,0.6-1.5,0.7-2,0.2L60,75
		c-0.5-0.5-1.3-0.5-1.8,0c-0.5,0.5-0.5,1.3,0,1.8l3.8,3.8c0.5,0.5,0.4,1.4-0.2,2c-0.6,0.6-1.5,0.7-2,0.2l-4.7-4.7
		c0.7-1,0.5-2.5-0.5-3.4c-1.1-1.1-2.8-1.2-3.8-0.2c1-1,0.9-2.7-0.2-3.8c-1.1-1.1-2.8-1.2-3.8-0.2c1-1,0.9-2.7-0.2-3.8
		c-1.1-1.1-2.8-1.2-3.8-0.2c1-1,0.9-2.7-0.2-3.8c-1-1-2.6-1.2-3.6-0.4l-7.5-7.5c-0.5-0.5-1.3-0.5-1.8,0c-0.5,0.5-0.5,1.3,0,1.8
		l7.5,7.5L35,66.3c-1,1-0.9,2.7,0.2,3.8c1.1,1.1,2.8,1.2,3.8,0.2c-1,1-0.9,2.7,0.2,3.8c1.1,1.1,2.8,1.2,3.8,0.2
		c-1,1-0.9,2.7,0.2,3.8c1.1,1.1,2.8,1.2,3.8,0.2c-1,1-0.9,2.7,0.2,3.8c1.1,1.1,2.8,1.2,3.8,0.2l2.4-2.4l4.6,4.6
		c1.5,1.5,4,1.4,5.6-0.2c0.8-0.8,1.2-1.8,1.2-2.8c1-0.1,2-0.5,2.8-1.3c0.8-0.8,1.2-1.8,1.3-2.8c1-0.1,2-0.5,2.8-1.3
		c0.8-0.8,1.2-1.8,1.3-2.8c1-0.1,2-0.5,2.8-1.3c1.6-1.6,1.7-4.1,0.2-5.6L74,64.8l8-8c0.5-0.5,0.5-1.3,0-1.8L70.4,43.4z M70.4,43.4"
		/>
	<path class="st1" d="M89.4,46.2L79.2,36c-1-1-2.6-1-3.6,0L72,39.6c-1,1-1,2.6,0,3.6l10.2,10.2c1,1,2.6,1,3.6,0l3.6-3.6
		C90.3,48.8,90.3,47.2,89.4,46.2L89.4,46.2z M84,51.4c-1.1,0-2.1-0.9-2.1-2.1c0-1.1,0.9-2.1,2.1-2.1c1.1,0,2.1,0.9,2.1,2.1
		C86.1,50.5,85.1,51.4,84,51.4L84,51.4z M84,51.4"/>
</g>
</svg>
