<?xml version="1.0" encoding="utf-8"?>
<!-- Generator: Adobe Illustrator 21.0.2, SVG Export Plug-In . SVG Version: 6.00 Build 0)  -->
<svg version="1.1" id="Layer_1" xmlns="http://www.w3.org/2000/svg" xmlns:xlink="http://www.w3.org/1999/xlink" x="0px" y="0px"
	 viewBox="0 0 497 486" style="enable-background:new 0 0 497 486;" xml:space="preserve">
<style type="text/css">
	.st0{opacity:0.54;fill:#FFD000;}
	.st1{fill:#B49755;}
	.st2{fill:#877140;}
	.st3{fill:#FFD000;}
	.st4{fill:#FFFFFF;}
</style>
<g>
	<circle class="st0" cx="248.1" cy="253.8" r="146.4"/>
	<path d="M248.1,400.9c-81.1,0-147.1-66-147.1-147.1c0-81.1,66-147.1,147.1-147.1c81.1,0,147.1,66,147.1,147.1
		C395.3,334.9,329.3,400.9,248.1,400.9z M248.1,108.1c-80.3,0-145.7,65.4-145.7,145.7c0,80.3,65.4,145.7,145.7,145.7
		s145.7-65.4,145.7-145.7C393.9,173.5,328.5,108.1,248.1,108.1z"/>
</g>
<g>
	<g>
		<polygon class="st1" points="249.1,183.1 249.1,183.1 249.1,183.1 249.1,183.1 249.1,183.1 		"/>
		<path d="M249.1,183.8L249.1,183.8c-0.2,0-0.5-0.1-0.6-0.3c-0.1-0.2-0.1-0.5,0-0.7c0.1-0.2,0.3-0.3,0.5-0.4c0.2,0,0.5,0,0.6,0.2
			c0.2,0.2,0.3,0.5,0.2,0.8C249.6,183.6,249.4,183.8,249.1,183.8z"/>
	</g>
	<g>
		<polygon class="st2" points="150.2,222.6 249.1,262.2 249.1,183.1 		"/>
		<path d="M249.1,262.9c-0.1,0-0.2,0-0.3-0.1L150,223.3c-0.3-0.1-0.4-0.4-0.4-0.7c0-0.3,0.2-0.5,0.4-0.7l98.8-39.6
			c0.2-0.1,0.5-0.1,0.7,0.1c0.2,0.1,0.3,0.3,0.3,0.6v79.1c0,0.2-0.1,0.5-0.3,0.6C249.3,262.9,249.2,262.9,249.1,262.9z M152.1,222.6
			l96.2,38.5v-77.1L152.1,222.6z"/>
	</g>
	<g>
		<polygon class="st2" points="249.1,262.2 347.9,222.6 249.1,183.1 		"/>
		<path d="M249.1,262.9c-0.1,0-0.3,0-0.4-0.1c-0.2-0.1-0.3-0.3-0.3-0.6v-79.1c0-0.2,0.1-0.5,0.3-0.6c0.2-0.1,0.4-0.2,0.7-0.1
			l98.8,39.6c0.3,0.1,0.4,0.4,0.4,0.7c0,0.3-0.2,0.5-0.4,0.7l-98.8,39.6C249.2,262.9,249.2,262.9,249.1,262.9z M249.8,184.1v77.1
			l96.2-38.5L249.8,184.1z"/>
	</g>
	<g>
		<polygon class="st1" points="150.2,222.6 249.1,262.2 150.2,222.6 		"/>
		<path d="M249.1,262.9c-0.1,0-0.2,0-0.3-0.1L150,223.3c-0.3-0.1-0.4-0.4-0.4-0.7c0-0.1,0-0.2,0.1-0.3c0.1-0.4,0.6-0.5,0.9-0.4
			l98.8,39.6c0.3,0.1,0.4,0.4,0.4,0.7c0,0.1,0,0.2-0.1,0.3C249.6,262.8,249.4,262.9,249.1,262.9z"/>
	</g>
	<g>
		<polygon class="st1" points="223.3,296.3 150.2,267.1 150.2,319 249.1,358.6 249.1,262.2 		"/>
		<path d="M249.1,359.3c-0.1,0-0.2,0-0.3-0.1L150,319.7c-0.3-0.1-0.4-0.4-0.4-0.7v-51.9c0-0.2,0.1-0.5,0.3-0.6
			c0.2-0.1,0.4-0.2,0.7-0.1l72.5,29l25.5-33.7c0.2-0.2,0.5-0.3,0.8-0.2c0.3,0.1,0.5,0.4,0.5,0.7v96.4c0,0.2-0.1,0.5-0.3,0.6
			C249.3,359.2,249.2,359.3,249.1,359.3z M150.9,318.5l97.4,39v-93.2l-24.5,32.4c-0.2,0.3-0.5,0.3-0.8,0.2l-72.1-28.8V318.5z"/>
	</g>
	<g>
		<polygon class="st1" points="249.1,262.2 150.2,222.6 150.2,222.6 150.2,222.6 150.2,222.6 124.4,256.8 150.2,267.1 223.3,296.3 
					"/>
		<path d="M223.3,297c-0.1,0-0.2,0-0.3-0.1l-98.8-39.6c-0.2-0.1-0.4-0.3-0.4-0.5c-0.1-0.2,0-0.4,0.1-0.6l25.8-34.1
			c0.2-0.3,0.5-0.3,0.8-0.2l98.8,39.6c0.2,0.1,0.4,0.3,0.4,0.5c0.1,0.2,0,0.4-0.1,0.6l-25.8,34.1C223.7,296.9,223.5,297,223.3,297z
			 M125.5,256.5l97.5,39l24.9-33l-97.5-39L125.5,256.5z"/>
	</g>
	<g>
		<polygon class="st1" points="249.1,262.2 347.9,222.6 347.9,222.6 249.1,262.2 249.1,358.6 347.9,319 347.9,267.1 274.9,296.3 		
			"/>
		<path d="M249.1,359.3c-0.1,0-0.3,0-0.4-0.1c-0.2-0.1-0.3-0.3-0.3-0.6v-96.4c0-0.3,0.2-0.5,0.4-0.7l98.8-39.6
			c0.4-0.1,0.8,0,0.9,0.4c0.1,0.4,0,0.8-0.4,0.9l-98,39.2l24.9,33l72.5-29c0.2-0.1,0.5-0.1,0.7,0.1c0.2,0.1,0.3,0.3,0.3,0.6V319
			c0,0.3-0.2,0.5-0.4,0.7l-98.8,39.6C249.2,359.3,249.2,359.3,249.1,359.3z M249.8,264.3v93.2l97.4-39v-50.4L275.1,297
			c-0.3,0.1-0.6,0-0.8-0.2L249.8,264.3z"/>
	</g>
	<g>
		<polygon class="st1" points="150.2,222.6 150.2,222.6 249.1,183.1 212.6,184.8 212.6,184.8 113.7,224.4 150.2,222.6 150.2,222.6 
					"/>
		<path d="M113.7,225.1c-0.3,0-0.6-0.2-0.7-0.6c-0.1-0.3,0.1-0.7,0.4-0.8l98.8-39.6c0.1,0,0.1,0,0.2,0l36.5-1.8
			c0.4,0,0.6,0.2,0.7,0.6c0.1,0.3-0.1,0.7-0.4,0.8l-98.8,39.6c-0.1,0-0.1,0-0.2,0L113.7,225.1C113.7,225.1,113.7,225.1,113.7,225.1z
			 M212.7,185.5l-94.8,38l32.2-1.5l94.8-38L212.7,185.5z"/>
	</g>
	<g>
		<polygon class="st1" points="150.2,222.6 249.1,183.1 249.1,183.1 150.2,222.6 		"/>
		<path d="M150.2,223.4L150.2,223.4L150.2,223.4c-0.3,0-0.5-0.2-0.7-0.4c-0.1-0.4,0-0.8,0.4-0.9l98.8-39.6c0.4-0.1,0.8,0,0.9,0.4
			c0.1,0.4,0,0.8-0.4,0.9l-98.8,39.6C150.4,223.3,150.3,223.4,150.2,223.4z"/>
	</g>
	<g>
		<polygon class="st1" points="249.1,262.2 274.9,296.3 347.9,267.1 373.7,256.8 347.9,222.6 		"/>
		<path d="M274.9,297c-0.2,0-0.4-0.1-0.6-0.3l-25.8-34.1c-0.1-0.2-0.2-0.4-0.1-0.6c0.1-0.2,0.2-0.4,0.4-0.5l98.8-39.6
			c0.3-0.1,0.6,0,0.8,0.2l25.8,34.1c0.1,0.2,0.2,0.4,0.1,0.6c-0.1,0.2-0.2,0.4-0.4,0.5L275.1,297C275.1,297,275,297,274.9,297z
			 M250.2,262.5l24.9,33l97.5-39l-24.9-33L250.2,262.5z"/>
	</g>
	<g>
		<polygon class="st1" points="347.9,222.6 347.9,222.6 384.4,224.4 285.6,184.8 285.6,184.8 249.1,183.1 347.9,222.6 		"/>
		<path d="M384.4,225.1C384.4,225.1,384.4,225.1,384.4,225.1l-36.5-1.8c-0.1,0-0.2,0-0.2,0l-98.8-39.6c-0.3-0.1-0.5-0.5-0.4-0.8
			c0.1-0.3,0.4-0.6,0.7-0.6l36.5,1.8c0.1,0,0.2,0,0.3,0l98.8,39.6c0.3,0.1,0.5,0.5,0.4,0.8C385,224.9,384.8,225.1,384.4,225.1z
			 M348.1,222l32.2,1.5l-94.8-38l-32.2-1.6L348.1,222z"/>
	</g>
	<g>
		<polygon class="st1" points="249.1,183.1 347.9,222.6 347.9,222.6 249.1,183.1 249.1,183.1 		"/>
		<path d="M347.9,223.4c-0.1,0-0.2,0-0.3-0.1l-98.8-39.6c-0.4-0.1-0.5-0.6-0.4-0.9c0.1-0.3,0.4-0.4,0.7-0.4h0h0c0.1,0,0.2,0,0.3,0.1
			l98.8,39.6c0.4,0.1,0.5,0.6,0.4,0.9C348.5,223.2,348.2,223.4,347.9,223.4z"/>
	</g>
</g>
<g>
	<path class="st3" d="M296.9,138.7L296.9,138.7c3-6.7,4.7-14,4.7-21.8c0-29-23.5-52.5-52.5-52.5c-29,0-52.5,23.5-52.5,52.5
		c0,7.8,1.7,15.1,4.8,21.8l-0.1,0l0.6,1.1c0.6,1.2,1.2,2.4,1.9,3.6l45.3,85.1l45.3-85.1c0.7-1.2,1.3-2.3,1.9-3.6L296.9,138.7z"/>
	<path d="M249.1,229.2c-0.3,0-0.5-0.1-0.6-0.4l-45.3-85.1c-0.7-1.1-1.3-2.3-1.9-3.6l-0.6-1.1c-0.1-0.1-0.1-0.2-0.1-0.3
		c-3.1-6.9-4.7-14.3-4.7-21.8c0-29.4,23.9-53.2,53.2-53.2c29.4,0,53.2,23.9,53.2,53.2c0,7.5-1.6,14.9-4.7,21.8c0,0.1,0,0.2-0.1,0.3
		l-0.6,1.1c-0.6,1.3-1.3,2.5-1.9,3.6l-45.3,85.1C249.6,229,249.3,229.2,249.1,229.2z M202,138.6l0.5,0.9c0.6,1.2,1.2,2.4,1.9,3.5
		l44.7,84l44.7-83.9c0.7-1.1,1.3-2.3,1.9-3.5l0.5-0.9c0-0.1,0-0.1,0.1-0.2c3.1-6.8,4.7-14.1,4.7-21.5c0-28.6-23.2-51.8-51.8-51.8
		c-28.6,0-51.8,23.2-51.8,51.8c0,7.4,1.6,14.7,4.7,21.5C202,138.5,202,138.5,202,138.6z"/>
</g>
<g>
	<ellipse class="st4" cx="249.1" cy="116.3" rx="27.5" ry="27.5"/>
	<path d="M249.1,144.5c-15.6,0-28.2-12.7-28.2-28.2c0-15.6,12.7-28.2,28.2-28.2c15.6,0,28.2,12.7,28.2,28.2
		C277.3,131.9,264.6,144.5,249.1,144.5z M249.1,89.5c-14.8,0-26.8,12-26.8,26.8s12,26.8,26.8,26.8c14.8,0,26.8-12,26.8-26.8
		S263.9,89.5,249.1,89.5z"/>
</g>
<g>
	<g>
		<g>
			<rect x="330.6" y="41.2" class="st4" width="123.8" height="104.6"/>
			<path d="M454.4,146.5H330.6c-0.4,0-0.7-0.3-0.7-0.7V41.2c0-0.4,0.3-0.7,0.7-0.7h123.8c0.4,0,0.7,0.3,0.7,0.7v104.6
				C455.1,146.2,454.8,146.5,454.4,146.5z M331.3,145.1h122.4V41.9H331.3V145.1z"/>
		</g>
		<g>
			<polygon class="st4" points="412.7,79.6 402.6,84.8 392.5,79.2 382.4,84.8 372.3,79.6 372.3,41.2 412.7,41.2 			"/>
			<path d="M382.4,85.5c-0.1,0-0.2,0-0.3-0.1L372,80.2c-0.2-0.1-0.4-0.4-0.4-0.6V41.2c0-0.4,0.3-0.7,0.7-0.7h40.4
				c0.4,0,0.7,0.3,0.7,0.7v38.4c0,0.3-0.1,0.5-0.4,0.6l-10.1,5.2c-0.2,0.1-0.5,0.1-0.7,0l-9.8-5.4l-9.8,5.4
				C382.6,85.5,382.5,85.5,382.4,85.5z M373,79.2l9.4,4.8l9.8-5.4c0.2-0.1,0.5-0.1,0.7,0l9.8,5.4l9.4-4.8V41.9h-39V79.2z"/>
		</g>
		<g>
			<rect x="347.3" y="102.6" class="st4" width="42.1" height="23.6"/>
			<path d="M389.3,126.9h-42.1c-0.4,0-0.7-0.3-0.7-0.7v-23.6c0-0.4,0.3-0.7,0.7-0.7h42.1c0.4,0,0.7,0.3,0.7,0.7v23.6
				C390,126.6,389.7,126.9,389.3,126.9z M348,125.5h40.7v-22.2H348V125.5z"/>
		</g>
		<g>
			<path d="M381.2,110.8h-25.9c-0.4,0-0.7-0.3-0.7-0.7c0-0.4,0.3-0.7,0.7-0.7h25.9c0.4,0,0.7,0.3,0.7,0.7
				C382,110.5,381.6,110.8,381.2,110.8z"/>
		</g>
		<g>
			<path d="M381.2,119.4h-25.9c-0.4,0-0.7-0.3-0.7-0.7c0-0.4,0.3-0.7,0.7-0.7h25.9c0.4,0,0.7,0.3,0.7,0.7
				C382,119.1,381.6,119.4,381.2,119.4z"/>
		</g>
	</g>
	<g>
		<ellipse class="st4" cx="442.1" cy="121.8" rx="27.2" ry="27.2"/>
		<path d="M442.1,149.7C442.1,149.7,442.1,149.7,442.1,149.7c-15.4,0-27.9-12.5-27.9-27.9c0-7.4,2.9-14.5,8.2-19.7
			c5.3-5.3,12.3-8.2,19.7-8.2c15.4,0,27.9,12.5,27.9,27.9c0,7.4-2.9,14.5-8.2,19.7C456.5,146.8,449.5,149.7,442.1,149.7z
			 M442.1,95.4c-7.1,0-13.7,2.8-18.7,7.8c-5,5-7.8,11.6-7.8,18.7c0,14.6,11.9,26.5,26.5,26.5l0,0h0c7.1,0,13.7-2.8,18.7-7.8
			c5-5,7.8-11.6,7.8-18.7C468.6,107.2,456.7,95.4,442.1,95.4z"/>
	</g>
	<g>
		<path class="st4" d="M442.1,159.9c-1.9,0-3.7-0.1-5.6-0.4l0,24.4c1.6-1.1,3.5-1.7,5.6-1.7c2.1,0,4,0.6,5.6,1.7l0-24.4
			C445.8,159.7,444,159.9,442.1,159.9z"/>
		<path d="M436.5,184.6c-0.1,0-0.2,0-0.3-0.1c-0.2-0.1-0.4-0.4-0.4-0.6l0-24.4c0-0.2,0.1-0.4,0.2-0.5c0.2-0.1,0.4-0.2,0.6-0.2
			c3.7,0.5,7.4,0.5,10.9,0c0.2,0,0.4,0,0.6,0.2c0.2,0.1,0.2,0.3,0.2,0.5l0,24.2c0,0.1,0,0.1,0,0.2c0,0.4-0.3,0.7-0.7,0.7
			c0,0,0,0,0,0c-0.1,0-0.3,0-0.4-0.1c-1.5-1-3.3-1.6-5.2-1.6c-1.9,0-3.6,0.5-5.2,1.6C436.8,184.5,436.7,184.6,436.5,184.6z
			 M437.2,160.3l0,22.4c1.5-0.8,3.2-1.2,4.9-1.2c1.7,0,3.4,0.4,4.9,1.2l0-22.4C443.7,160.7,440.4,160.6,437.2,160.3z"/>
	</g>
	<g>
		<path class="st4" d="M442.1,83.8c-21,0-38,17-38,38c0,19.1,14.1,34.9,32.5,37.6c1.8,0.3,3.7,0.4,5.6,0.4c1.9,0,3.7-0.1,5.6-0.4
			c18.4-2.7,32.5-18.5,32.5-37.6C480.1,100.8,463.1,83.8,442.1,83.8z M442.1,149c-15,0-27.2-12.2-27.2-27.2
			c0-15,12.2-27.2,27.2-27.2c15,0,27.2,12.2,27.2,27.2C469.3,136.8,457.1,149,442.1,149z"/>
		<path d="M442.1,160.6L442.1,160.6c-1.9,0-3.8-0.1-5.7-0.4c-18.8-2.8-33.1-19.2-33.1-38.3c0-21.4,17.4-38.7,38.7-38.7
			c10.4,0,20.1,4,27.4,11.3c7.3,7.3,11.3,17,11.3,27.4c0,19.1-14.2,35.5-33.1,38.3C445.9,160.4,444,160.6,442.1,160.6z M442.1,84.5
			c-20.6,0-37.3,16.7-37.3,37.3c0,18.4,13.7,34.3,31.9,36.9c1.8,0.3,3.6,0.4,5.4,0.4h0.1c1.8,0,3.6-0.1,5.4-0.4
			c18.2-2.7,31.9-18.5,31.9-36.9c0-10-3.9-19.3-10.9-26.4C461.4,88.4,452.1,84.5,442.1,84.5z M442.1,149.7
			c-15.4,0-27.9-12.5-27.9-27.9c0-7.4,2.9-14.5,8.2-19.7c5.3-5.3,12.3-8.2,19.7-8.2l0,0c15.4,0,27.9,12.5,27.9,27.9
			C470,137.2,457.5,149.7,442.1,149.7z M442.1,95.4c-7.1,0-13.7,2.8-18.7,7.8c-5,5-7.8,11.6-7.8,18.7c0,14.6,11.9,26.5,26.5,26.5
			c7.1,0,13.7-2.8,18.7-7.8c5-5,7.8-11.6,7.8-18.7C468.6,107.2,456.7,95.4,442.1,95.4L442.1,95.4z"/>
	</g>
	<g>
		<path class="st4" d="M447.7,183.9c-1.6-1.1-3.5-1.7-5.6-1.7c-2.1,0-4,0.6-5.6,1.7c-2.6,1.8-4.3,4.8-4.3,8.2v34.5
			c0,5.5,4.4,9.9,9.9,9.9c5.5,0,9.9-4.4,9.9-9.9V192C452,188.6,450.3,185.6,447.7,183.9z"/>
		<path d="M442.1,237.1c-5.8,0-10.6-4.7-10.6-10.6V192c0-3.5,1.7-6.8,4.6-8.8c1.8-1.2,3.8-1.8,6-1.8c2.1,0,4.2,0.6,6,1.8
			c2.9,2,4.6,5.2,4.6,8.8v34.5C452.7,232.3,447.9,237.1,442.1,237.1z M442.1,182.8c-1.9,0-3.6,0.5-5.2,1.6c-2.5,1.7-4,4.6-4,7.6
			v34.5c0,5.1,4.1,9.2,9.2,9.2c5.1,0,9.2-4.1,9.2-9.2V192c0-3-1.5-5.9-4-7.6C445.7,183.4,444,182.8,442.1,182.8z"/>
	</g>
</g>
<g>
	<path d="M442.8,146.1c-0.2,0-0.4-0.1-0.5-0.2c-0.3-0.3-0.3-0.7,0-1l15.2-15.2c0.3-0.3,0.7-0.3,1,0c0.3,0.3,0.3,0.7,0,1l-15.2,15.2
		C443.2,146,443,146.1,442.8,146.1z"/>
</g>
<g>
	<path d="M428.8,143.5c-0.2,0-0.4-0.1-0.5-0.2c-0.3-0.3-0.3-0.7,0-1l26.7-26.7c0.3-0.3,0.7-0.3,1,0c0.3,0.3,0.3,0.7,0,1l-26.7,26.7
		C429.1,143.5,428.9,143.5,428.8,143.5z"/>
</g>
<g>
	<path d="M426.3,129.4c-0.2,0-0.4-0.1-0.5-0.2c-0.3-0.3-0.3-0.7,0-1l15-15c0.3-0.3,0.7-0.3,1,0c0.3,0.3,0.3,0.7,0,1l-15,15
		C426.6,129.3,426.5,129.4,426.3,129.4z"/>
</g>
<g>
	<g>
		<g>
			<path class="st4" d="M194.7,331.1H60.3v102.5h43.4c0-8.8,7.1-16,16-16c8.8,0,16,7.1,16,16h59.1v-66.5V331.1z"/>
			<path d="M194.7,434.4h-59.1c-0.4,0-0.7-0.3-0.7-0.7c0-8.4-6.8-15.3-15.3-15.3c-8.4,0-15.3,6.8-15.3,15.3c0,0.4-0.3,0.7-0.7,0.7
				H60.3c-0.4,0-0.7-0.3-0.7-0.7V331.1c0-0.4,0.3-0.7,0.7-0.7h134.5c0.4,0,0.7,0.3,0.7,0.7v102.5C195.4,434,195.1,434.4,194.7,434.4
				z M136.3,432.9H194V331.8H61v101.1h42c0.4-8.9,7.7-16,16.6-16C128.6,417,136,424.1,136.3,432.9z"/>
		</g>
		<g>
			<path class="st4" d="M254.1,398.9h-14.8v-5.1V384c0-3-0.8-5.7-2.1-8.2c-2.9-5.2-8.4-8.7-14.8-8.7h-27.7v66.5h31.6
				c0-8.8,7.1-16,16-16c8.8,0,16,7.1,16,16H271v-17.8C271,406.5,263.4,398.9,254.1,398.9z M232.4,398.8h-26v-25.1h16.9
				c5.1,0,9.1,4.1,9.1,9.1V398.8z"/>
			<path d="M271,434.4h-12.7c-0.4,0-0.7-0.3-0.7-0.7c0-8.4-6.8-15.3-15.3-15.3c-8.4,0-15.3,6.8-15.3,15.3c0,0.4-0.3,0.7-0.7,0.7
				h-31.6c-0.4,0-0.7-0.3-0.7-0.7v-66.5c0-0.4,0.3-0.7,0.7-0.7h27.7c6.4,0,12.3,3.5,15.4,9.1c1.4,2.6,2.2,5.5,2.2,8.5v14.2h14.1
				c9.7,0,17.6,7.9,17.6,17.6v17.8C271.7,434,271.4,434.4,271,434.4z M259,432.9h11.3v-17.1c0-8.9-7.3-16.2-16.2-16.2h-14.8
				c-0.4,0-0.7-0.3-0.7-0.7V384c0-2.7-0.7-5.4-2-7.8c-2.9-5.2-8.3-8.4-14.2-8.4h-27v65.1h30.2c0.4-8.9,7.7-16,16.6-16
				S258.6,424.1,259,432.9z M232.4,399.5h-26c-0.4,0-0.7-0.3-0.7-0.7v-25.1c0-0.4,0.3-0.7,0.7-0.7h16.9c5.4,0,9.9,4.4,9.9,9.9v16
				C233.1,399.2,232.8,399.5,232.4,399.5z M207.1,398.1h24.6v-15.3c0-4.7-3.8-8.4-8.4-8.4h-16.2V398.1z"/>
		</g>
		<g>
			<circle class="st4" cx="242.3" cy="433.6" r="16"/>
			<path d="M242.3,450.3c-9.2,0-16.7-7.5-16.7-16.7c0-9.2,7.5-16.7,16.7-16.7c9.2,0,16.7,7.5,16.7,16.7
				C259,442.8,251.5,450.3,242.3,450.3z M242.3,418.4c-8.4,0-15.3,6.8-15.3,15.3c0,8.4,6.8,15.3,15.3,15.3c8.4,0,15.3-6.8,15.3-15.3
				C257.6,425.2,250.7,418.4,242.3,418.4z"/>
		</g>
		<g>
			<circle class="st4" cx="119.7" cy="433.6" r="16"/>
			<path d="M119.7,450.3c-9.2,0-16.7-7.5-16.7-16.7c0-9.2,7.5-16.7,16.7-16.7s16.7,7.5,16.7,16.7
				C136.3,442.8,128.9,450.3,119.7,450.3z M119.7,418.4c-8.4,0-15.3,6.8-15.3,15.3c0,8.4,6.8,15.3,15.3,15.3
				c8.4,0,15.3-6.8,15.3-15.3C134.9,425.2,128.1,418.4,119.7,418.4z"/>
		</g>
		<g>
			<path class="st4" d="M223.2,373.7h-16.9v25.1h26v-16C232.4,377.8,228.3,373.7,223.2,373.7z"/>
			<path d="M232.4,399.5h-26c-0.4,0-0.7-0.3-0.7-0.7v-25.1c0-0.4,0.3-0.7,0.7-0.7h16.9c5.4,0,9.9,4.4,9.9,9.9v16
				C233.1,399.2,232.8,399.5,232.4,399.5z M207.1,398.1h24.6v-15.3c0-4.7-3.8-8.4-8.4-8.4h-16.2V398.1z"/>
		</g>
		<g>
			<g>
				<rect x="31.7" y="370.6" class="st4" width="123.8" height="104.6"/>
				<path d="M155.5,475.9H31.7c-0.4,0-0.7-0.3-0.7-0.7V370.6c0-0.4,0.3-0.7,0.7-0.7h123.8c0.4,0,0.7,0.3,0.7,0.7v104.6
					C156.2,475.6,155.9,475.9,155.5,475.9z M32.4,474.5h122.4V371.3H32.4V474.5z"/>
			</g>
			<g>
				<polygon class="st4" points="113.8,409 103.7,414.2 93.6,408.6 83.5,414.2 73.4,409 73.4,370.6 113.8,370.6 				"/>
				<path d="M83.5,414.9c-0.1,0-0.2,0-0.3-0.1L73,409.6c-0.2-0.1-0.4-0.4-0.4-0.6v-38.4c0-0.4,0.3-0.7,0.7-0.7h40.4
					c0.4,0,0.7,0.3,0.7,0.7V409c0,0.3-0.1,0.5-0.4,0.6l-10.1,5.2c-0.2,0.1-0.5,0.1-0.7,0l-9.8-5.4l-9.8,5.4
					C83.7,414.9,83.6,414.9,83.5,414.9z M74.1,408.6l9.4,4.8l9.8-5.4c0.2-0.1,0.5-0.1,0.7,0l9.8,5.4l9.4-4.8v-37.3h-39V408.6z"/>
			</g>
			<g>
				<rect x="48.3" y="432" class="st4" width="42.1" height="23.6"/>
				<path d="M90.4,456.3H48.3c-0.4,0-0.7-0.3-0.7-0.7V432c0-0.4,0.3-0.7,0.7-0.7h42.1c0.4,0,0.7,0.3,0.7,0.7v23.6
					C91.1,456,90.8,456.3,90.4,456.3z M49,454.9h40.6v-22.2H49V454.9z"/>
			</g>
			<g>
				<path d="M82.3,440.2H56.4c-0.4,0-0.7-0.3-0.7-0.7c0-0.4,0.3-0.7,0.7-0.7h25.9c0.4,0,0.7,0.3,0.7,0.7
					C83,439.9,82.7,440.2,82.3,440.2z"/>
			</g>
			<g>
				<path d="M82.3,448.8H56.4c-0.4,0-0.7-0.3-0.7-0.7c0-0.4,0.3-0.7,0.7-0.7h25.9c0.4,0,0.7,0.3,0.7,0.7
					C83,448.5,82.7,448.8,82.3,448.8z"/>
			</g>
		</g>
	</g>
	<g>
		<path d="M60.3,331.8H34.8c-0.4,0-0.7-0.3-0.7-0.7c0-0.4,0.3-0.7,0.7-0.7h25.5c0.4,0,0.7,0.3,0.7,0.7
			C61,331.5,60.7,331.8,60.3,331.8z"/>
	</g>
	<g>
		<path d="M104.7,343.7H46.1c-0.4,0-0.7-0.3-0.7-0.7s0.3-0.7,0.7-0.7h58.7c0.4,0,0.7,0.3,0.7,0.7S105.1,343.7,104.7,343.7z"/>
	</g>
	<g>
		<path d="M25.7,331.8H12.9c-0.4,0-0.7-0.3-0.7-0.7c0-0.4,0.3-0.7,0.7-0.7h12.7c0.4,0,0.7,0.3,0.7,0.7
			C26.4,331.5,26.1,331.8,25.7,331.8z"/>
	</g>
	<g>
		<path d="M83.7,361.3H36.3c-0.4,0-0.7-0.3-0.7-0.7c0-0.4,0.3-0.7,0.7-0.7h47.4c0.4,0,0.7,0.3,0.7,0.7
			C84.4,361,84.1,361.3,83.7,361.3z"/>
	</g>
	<g>
		<path d="M27.1,361.3H14.4c-0.4,0-0.7-0.3-0.7-0.7c0-0.4,0.3-0.7,0.7-0.7h12.7c0.4,0,0.7,0.3,0.7,0.7
			C27.8,361,27.5,361.3,27.1,361.3z"/>
	</g>
	<g>
		<path d="M38.1,343.7H25.3c-0.4,0-0.7-0.3-0.7-0.7s0.3-0.7,0.7-0.7h12.7c0.4,0,0.7,0.3,0.7,0.7S38.4,343.7,38.1,343.7z"/>
	</g>
	<g>
		<path d="M242.3,442.1c-4.7,0-8.5-3.8-8.5-8.5c0-4.7,3.8-8.5,8.5-8.5c4.7,0,8.5,3.8,8.5,8.5C250.8,438.3,247,442.1,242.3,442.1z
			 M242.3,426.6c-3.9,0-7.1,3.2-7.1,7.1c0,3.9,3.2,7.1,7.1,7.1c3.9,0,7.1-3.2,7.1-7.1C249.4,429.8,246.2,426.6,242.3,426.6z"/>
	</g>
</g>
<g>
	<g>
		<path class="st4" d="M147.6,76.7v21c-0.1-0.2-0.3-0.3-0.4-0.5c-2.1-2.1-5.5-2.1-7.6,0l-11.5,11.5l-2-0.3c0,0-3.2-0.4-5.8,1.9
			l-6.1,6c0,0-3.2,3.2-3.2,6.8v15.8h22.9v-5.5l18.7-17.3c0,0,4.8-4.3,4.8-9.1V67.1C157.4,67.1,147.6,67.2,147.6,76.7z"/>
		<path d="M133.9,139.5H111c-0.4,0-0.7-0.3-0.7-0.7V123c0-3.9,3.2-7.1,3.4-7.3l6.1-6c2.9-2.5,6.4-2.1,6.4-2.1l1.6,0.2L139,96.6
			c1.2-1.2,2.7-1.8,4.3-1.8c1.3,0,2.5,0.4,3.5,1.1V76.7c0-10,10.4-10.3,10.5-10.3c0.2,0,0.4,0.1,0.5,0.2c0.1,0.1,0.2,0.3,0.2,0.5
			v39.8c0,5-4.9,9.4-5.1,9.6l-18.5,17.1v5.2C134.6,139.2,134.3,139.5,133.9,139.5z M111.7,138.1h21.5v-4.8c0-0.2,0.1-0.4,0.2-0.5
			l18.7-17.3c0.1,0,4.6-4.2,4.6-8.6v-39c-2.2,0.2-8.4,1.5-8.4,8.8v21c0,0.3-0.2,0.6-0.5,0.7c-0.3,0.1-0.6,0-0.8-0.2l-0.1-0.2
			c-0.1-0.1-0.1-0.2-0.2-0.3c-1.8-1.8-4.9-1.8-6.7,0l-11.4,11.5c-0.2,0.2-0.4,0.2-0.6,0.2l-2-0.3c0,0-0.2,0-0.6,0
			c-1,0-3,0.2-4.7,1.7l-6.1,6c0,0-3,3-3,6.3V138.1z"/>
	</g>
	<g>
		<path class="st4" d="M142,143.5c0,2.6-2.1,4.7-4.7,4.7h-29.5c-2.6,0-4.7-2.1-4.7-4.7l0,0c0-2.6,2.1-4.7,4.7-4.7h29.5
			C139.9,138.8,142,140.9,142,143.5L142,143.5z"/>
		<path d="M137.3,148.9h-29.5c-3,0-5.4-2.4-5.4-5.4c0-3,2.4-5.4,5.4-5.4h29.5c3,0,5.4,2.4,5.4,5.4
			C142.7,146.4,140.3,148.9,137.3,148.9z M107.9,139.5c-2.2,0-4,1.8-4,4c0,2.2,1.8,4,4,4h29.5c2.2,0,4-1.8,4-4c0-2.2-1.8-4-4-4
			H107.9z"/>
	</g>
	<g>
		<rect x="107.3" y="148.2" class="st4" width="30.6" height="30.8"/>
		<path d="M137.9,179.6h-30.6c-0.4,0-0.7-0.3-0.7-0.7v-30.8c0-0.4,0.3-0.7,0.7-0.7h30.6c0.4,0,0.7,0.3,0.7,0.7v30.8
			C138.6,179.3,138.3,179.6,137.9,179.6z M108,178.2h29.2v-29.4H108V178.2z"/>
	</g>
	<g>
		<path class="st4" d="M37.7,76.7v21c0.1-0.2,0.3-0.3,0.4-0.5c2.1-2.1,5.5-2.1,7.6,0l11.5,11.5l2-0.3c0,0,3.2-0.4,5.8,1.9l6.1,6
			c0,0,3.2,3.2,3.2,6.8v15.8H51.4v-5.5L32.7,116c0,0-4.8-4.3-4.8-9.1V67.1C27.9,67.1,37.7,67.2,37.7,76.7z"/>
		<path d="M74.3,139.5H51.4c-0.4,0-0.7-0.3-0.7-0.7v-5.2l-18.5-17.1c-0.2-0.2-5.1-4.6-5.1-9.6V67.1c0-0.2,0.1-0.4,0.2-0.5
			c0.1-0.1,0.3-0.2,0.5-0.2c0.1,0,10.5,0.2,10.5,10.3V96c1-0.7,2.2-1.1,3.5-1.1c1.6,0,3.2,0.6,4.3,1.8l11.2,11.2l1.7-0.2l0,0
			c0,0,3.5-0.5,6.4,2l6.1,6c0.1,0.1,3.4,3.4,3.4,7.3v15.8C75,139.2,74.7,139.5,74.3,139.5z M52.1,138.1h21.5V123
			c0-3.3-2.9-6.2-3-6.3l-6.1-6c-1.7-1.5-3.6-1.7-4.7-1.7c-0.3,0-0.5,0-0.6,0l-2,0.3c-0.2,0-0.4,0-0.6-0.2L45.3,97.6
			c-1.8-1.8-4.9-1.8-6.6,0c-0.1,0.1-0.2,0.2-0.2,0.3l-0.1,0.1c-0.2,0.2-0.5,0.3-0.8,0.2c-0.3-0.1-0.5-0.4-0.5-0.7v-21
			c0-7.3-6.3-8.6-8.4-8.8v39c0,4.4,4.6,8.5,4.6,8.6l18.7,17.3c0.1,0.1,0.2,0.3,0.2,0.5V138.1z"/>
	</g>
	<g>
		<path class="st4" d="M43.3,143.5c0,2.6,2.1,4.7,4.7,4.7h29.5c2.6,0,4.7-2.1,4.7-4.7l0,0c0-2.6-2.1-4.7-4.7-4.7H48
			C45.4,138.8,43.3,140.9,43.3,143.5L43.3,143.5z"/>
		<path d="M77.5,148.9H48c-3,0-5.4-2.4-5.4-5.4c0-3,2.4-5.4,5.4-5.4h29.5c3,0,5.4,2.4,5.4,5.4C82.9,146.4,80.4,148.9,77.5,148.9z
			 M48,139.5c-2.2,0-4,1.8-4,4c0,2.2,1.8,4,4,4h29.5c2.2,0,4-1.8,4-4c0-2.2-1.8-4-4-4H48z"/>
	</g>
	<g>
		<rect x="47.4" y="148.2" class="st4" width="30.6" height="30.8"/>
		<path d="M78,179.6H47.4c-0.4,0-0.7-0.3-0.7-0.7v-30.8c0-0.4,0.3-0.7,0.7-0.7H78c0.4,0,0.7,0.3,0.7,0.7v30.8
			C78.7,179.3,78.4,179.6,78,179.6z M48.1,178.2h29.2v-29.4H48.1V178.2z"/>
	</g>
	<g>
		<g>
			<polygon class="st4" points="87.9,60.2 63.2,44.4 63.2,61 63.2,66.2 63.2,76.1 92.5,94.9 92.5,63.2 			"/>
			<path d="M92.5,95.6c-0.1,0-0.3,0-0.4-0.1L62.8,76.7c-0.2-0.1-0.3-0.4-0.3-0.6V44.4c0-0.3,0.1-0.5,0.4-0.6c0.2-0.1,0.5-0.1,0.7,0
				l29.3,18.8c0.2,0.1,0.3,0.4,0.3,0.6v31.7c0,0.3-0.1,0.5-0.4,0.6C92.8,95.5,92.7,95.6,92.5,95.6z M63.9,75.7l27.9,17.9v-30
				L63.9,45.7V75.7z"/>
		</g>
		<g>
			<polygon class="st4" points="97.2,60.2 92.5,63.2 92.5,94.9 121.9,76.1 121.9,66.9 121.9,61 121.9,44.4 			"/>
			<path d="M92.5,95.6c-0.1,0-0.2,0-0.3-0.1c-0.2-0.1-0.4-0.4-0.4-0.6V63.2c0-0.2,0.1-0.5,0.3-0.6l29.3-18.8c0.2-0.1,0.5-0.1,0.7,0
				c0.2,0.1,0.4,0.4,0.4,0.6v31.7c0,0.2-0.1,0.5-0.3,0.6L92.9,95.4C92.8,95.5,92.7,95.6,92.5,95.6z M93.2,63.6v30l27.9-17.9v-30
				L93.2,63.6z"/>
		</g>
		<g>
			<polygon class="st4" points="92.5,63.2 97.2,60.2 121.9,44.4 92.5,25.6 63.2,44.4 87.9,60.2 			"/>
			<path d="M92.5,63.9c-0.1,0-0.3,0-0.4-0.1L62.8,45c-0.2-0.1-0.3-0.4-0.3-0.6c0-0.2,0.1-0.5,0.3-0.6L92.2,25c0.2-0.1,0.5-0.1,0.8,0
				l29.3,18.8c0.2,0.1,0.3,0.4,0.3,0.6c0,0.2-0.1,0.5-0.3,0.6L92.9,63.8C92.8,63.9,92.7,63.9,92.5,63.9z M64.5,44.4l28,17.9l28-17.9
				l-28-17.9L64.5,44.4z"/>
		</g>
	</g>
	<g>
		<path class="st4" d="M128.1,108.6l11.5-11.5c2.1-2.1,5.5-2.1,7.6,0l0,0c2.1,2.1,2.1,5.5,0,7.6l-14.5,14.5"/>
		<path d="M132.7,120c-0.2,0-0.4-0.1-0.5-0.2c-0.3-0.3-0.3-0.7,0-1l14.5-14.5c1.8-1.8,1.8-4.8,0-6.7c-1.8-1.8-4.8-1.8-6.6,0
			l-11.4,11.5c-0.3,0.3-0.7,0.3-1,0c-0.3-0.3-0.3-0.7,0-1L139,96.6c2.4-2.4,6.3-2.4,8.6,0c2.4,2.4,2.4,6.3,0,8.6l-14.5,14.5
			C133,119.9,132.9,120,132.7,120z"/>
	</g>
	<g>
		<path class="st4" d="M57.2,108.6L45.8,97.1c-2.1-2.1-5.5-2.1-7.6,0l0,0c-2.1,2.1-2.1,5.5,0,7.6l14.5,14.5"/>
		<path d="M52.6,120c-0.2,0-0.4-0.1-0.5-0.2l-14.5-14.5c-2.4-2.4-2.4-6.3,0-8.6c1.2-1.2,2.7-1.8,4.3-1.8h0c1.6,0,3.2,0.6,4.3,1.8
			l11.5,11.5c0.3,0.3,0.3,0.7,0,1c-0.3,0.3-0.7,0.3-1,0L45.3,97.6c-0.9-0.9-2.1-1.4-3.3-1.4h0c-1.3,0-2.4,0.5-3.3,1.4
			c-1.8,1.8-1.8,4.8,0,6.7l14.5,14.5c0.3,0.3,0.3,0.7,0,1C53,119.9,52.8,120,52.6,120z"/>
	</g>
</g>
<g>
	<g>
		<g>
			<polygon class="st4" points="324.7,371.9 394.6,399.9 394.6,343.9 			"/>
			<path d="M394.6,400.6c-0.1,0-0.2,0-0.3-0.1l-69.9-28c-0.3-0.1-0.4-0.4-0.4-0.7c0-0.3,0.2-0.5,0.4-0.7l69.9-28
				c0.2-0.1,0.5-0.1,0.7,0.1c0.2,0.1,0.3,0.3,0.3,0.6v56c0,0.2-0.1,0.5-0.3,0.6C394.8,400.6,394.7,400.6,394.6,400.6z M326.6,371.9
				l67.3,26.9V345L326.6,371.9z"/>
		</g>
		<g>
			<polygon class="st4" points="394.6,399.9 464.5,371.9 394.6,343.9 			"/>
			<path d="M394.6,400.6c-0.1,0-0.3,0-0.4-0.1c-0.2-0.1-0.3-0.3-0.3-0.6v-56c0-0.2,0.1-0.5,0.3-0.6c0.2-0.1,0.4-0.2,0.7-0.1l69.9,28
				c0.3,0.1,0.4,0.4,0.4,0.7c0,0.3-0.2,0.5-0.4,0.7l-69.9,28C394.7,400.6,394.7,400.6,394.6,400.6z M395.3,345v53.9l67.3-26.9
				L395.3,345z"/>
		</g>
		<g>
			<polygon class="st4" points="324.7,371.9 394.6,399.9 324.7,371.9 			"/>
			<path d="M394.6,400.6c-0.1,0-0.2,0-0.3-0.1l-69.9-28c-0.3-0.1-0.4-0.4-0.4-0.7c0-0.1,0-0.2,0.1-0.3c0.1-0.4,0.6-0.5,0.9-0.4
				l69.9,28c0.3,0.1,0.4,0.4,0.4,0.7c0,0.1,0,0.2-0.1,0.3C395.1,400.4,394.8,400.6,394.6,400.6z"/>
		</g>
		<g>
			<polygon class="st4" points="376.3,424 324.7,403.4 324.7,440.1 394.6,468.1 394.6,399.9 			"/>
			<path d="M394.6,468.8c-0.1,0-0.2,0-0.3-0.1l-69.9-28c-0.3-0.1-0.4-0.4-0.4-0.7v-36.7c0-0.2,0.1-0.5,0.3-0.6
				c0.2-0.1,0.4-0.2,0.7-0.1l51.2,20.5l17.9-23.7c0.2-0.2,0.5-0.3,0.8-0.2c0.3,0.1,0.5,0.4,0.5,0.7v68.2c0,0.2-0.1,0.5-0.3,0.6
				C394.8,468.7,394.7,468.8,394.6,468.8z M325.4,439.6l68.5,27.4v-65l-17,22.5c-0.2,0.3-0.5,0.3-0.8,0.2l-50.7-20.3V439.6z"/>
		</g>
		<g>
			<polygon class="st4" points="394.6,399.9 324.7,371.9 324.7,371.9 324.7,371.9 324.7,371.9 306.4,396.1 324.7,403.4 376.3,424 
							"/>
			<path d="M376.3,424.7c-0.1,0-0.2,0-0.3-0.1l-69.9-28c-0.2-0.1-0.4-0.3-0.4-0.5c-0.1-0.2,0-0.4,0.1-0.6l18.3-24.1
				c0.2-0.3,0.5-0.3,0.8-0.2l69.9,28c0.2,0.1,0.4,0.3,0.4,0.5c0.1,0.2,0,0.4-0.1,0.6l-18.3,24.1
				C376.7,424.6,376.5,424.7,376.3,424.7z M307.5,395.7l68.5,27.4l17.4-23l-68.5-27.4L307.5,395.7z"/>
		</g>
		<g>
			<polygon class="st4" points="394.6,399.9 464.5,371.9 464.5,371.9 394.6,399.9 394.6,468.1 464.5,440.1 464.5,403.4 412.8,424 
							"/>
			<path d="M394.6,468.8c-0.1,0-0.3,0-0.4-0.1c-0.2-0.1-0.3-0.3-0.3-0.6v-68.2c0-0.3,0.2-0.5,0.4-0.7l69.9-28c0.4-0.1,0.8,0,0.9,0.4
				c0.1,0.4,0,0.8-0.4,0.9l-69,27.6l17.4,23l51.2-20.5c0.2-0.1,0.5-0.1,0.7,0.1c0.2,0.1,0.3,0.3,0.3,0.6v36.7c0,0.3-0.2,0.5-0.4,0.7
				l-69.9,28C394.7,468.8,394.7,468.8,394.6,468.8z M395.3,402v65l68.5-27.4v-35.2l-50.7,20.3c-0.3,0.1-0.6,0-0.8-0.2L395.3,402z"/>
		</g>
		<g>
			<polygon class="st4" points="324.7,371.9 324.7,371.9 394.6,343.9 368.7,345.2 368.7,345.2 298.8,373.2 324.7,371.9 324.7,371.9 
							"/>
			<path d="M298.8,373.9c-0.3,0-0.6-0.2-0.7-0.6c-0.1-0.3,0.1-0.7,0.4-0.8l69.9-28c0.1,0,0.1,0,0.2,0l25.8-1.2
				c0.4,0,0.7,0.2,0.7,0.6c0.1,0.3-0.1,0.7-0.4,0.8l-69.9,28c-0.1,0-0.1,0-0.2,0L298.8,373.9C298.9,373.9,298.8,373.9,298.8,373.9z
				 M368.9,345.9L303,372.3l21.5-1l65.9-26.4L368.9,345.9z"/>
		</g>
		<g>
			<polygon class="st4" points="324.7,371.9 394.6,343.9 394.6,343.9 324.7,371.9 			"/>
			<path d="M324.7,372.6c-0.3,0-0.5-0.2-0.7-0.4c0-0.1-0.1-0.2-0.1-0.3c0-0.3,0.2-0.5,0.4-0.7l69.9-28c0.4-0.1,0.8,0,0.9,0.4
				c0,0.1,0.1,0.2,0.1,0.3c0,0.3-0.2,0.5-0.4,0.7l-69.9,28C324.8,372.6,324.7,372.6,324.7,372.6z"/>
		</g>
		<g>
			<path d="M324.7,372.6c-0.4,0-0.7-0.3-0.7-0.7c0-0.4,0.3-0.7,0.7-0.7h0c0.4,0,0.7,0.3,0.7,0.7
				C325.4,372.3,325.1,372.6,324.7,372.6z"/>
		</g>
		<g>
			<path d="M324.7,372.6c-0.4,0-0.7-0.3-0.7-0.7c0-0.4,0.3-0.7,0.7-0.7h0c0.4,0,0.7,0.3,0.7,0.7
				C325.4,372.3,325.1,372.6,324.7,372.6z"/>
		</g>
		<g>
			<polygon class="st4" points="394.6,399.9 412.8,424 464.5,403.4 482.7,396.1 464.5,371.9 			"/>
			<path d="M412.8,424.7c-0.2,0-0.4-0.1-0.6-0.3L394,400.3c-0.1-0.2-0.2-0.4-0.1-0.6c0.1-0.2,0.2-0.4,0.4-0.5l69.9-28
				c0.3-0.1,0.6,0,0.8,0.2l18.3,24.1c0.1,0.2,0.2,0.4,0.1,0.6c-0.1,0.2-0.2,0.4-0.4,0.5l-69.9,28C413,424.7,412.9,424.7,412.8,424.7
				z M395.7,400.2l17.4,23l68.5-27.4l-17.4-23L395.7,400.2z"/>
		</g>
		<g>
			<polygon class="st4" points="464.5,371.9 464.5,371.9 490.3,373.2 420.4,345.2 420.4,345.2 394.6,343.9 464.5,371.9 			"/>
			<path d="M490.3,373.9C490.3,373.9,490.3,373.9,490.3,373.9l-25.9-1.2c-0.1,0-0.2,0-0.2,0l-69.9-28c-0.3-0.1-0.5-0.5-0.4-0.8
				c0.1-0.3,0.3-0.6,0.7-0.6l25.8,1.2c0.1,0,0.2,0,0.2,0l69.9,28c0.3,0.1,0.5,0.5,0.4,0.8C490.9,373.6,490.6,373.9,490.3,373.9z
				 M464.6,371.2l21.5,1l-65.9-26.4l-21.5-1L464.6,371.2z"/>
		</g>
		<g>
			<polygon class="st4" points="394.6,343.9 464.5,371.9 464.5,371.9 394.6,343.9 394.6,343.9 			"/>
			<path d="M464.5,372.6c-0.1,0-0.2,0-0.3-0.1l-69.9-28c-0.4-0.1-0.5-0.6-0.4-0.9c0.1-0.4,0.6-0.5,0.9-0.4h0l69.9,28
				c0.4,0.1,0.5,0.6,0.4,0.9C465,372.5,464.8,372.6,464.5,372.6C464.5,372.6,464.5,372.6,464.5,372.6z"/>
		</g>
		<g>
			<path d="M324.7,372.6c-0.4,0-0.7-0.3-0.7-0.7c0-0.4,0.3-0.7,0.7-0.7h0c0.4,0,0.7,0.3,0.7,0.7
				C325.4,372.3,325.1,372.6,324.7,372.6z"/>
		</g>
	</g>
	<g>
		<polygon class="st4" points="409.9,361.8 409.9,306.4 379.4,306.4 379.4,361.8 368.8,361.8 394.7,390.5 420.5,361.8 		"/>
		<path d="M394.7,391.2c-0.2,0-0.4-0.1-0.5-0.2l-25.9-28.7c-0.2-0.2-0.2-0.5-0.1-0.8c0.1-0.3,0.4-0.4,0.6-0.4h9.9v-54.7
			c0-0.4,0.3-0.7,0.7-0.7h30.5c0.4,0,0.7,0.3,0.7,0.7v54.7h9.9c0.3,0,0.5,0.2,0.6,0.4c0.1,0.3,0.1,0.6-0.1,0.8l-25.9,28.7
			C395,391.1,394.9,391.2,394.7,391.2z M370.4,362.5l24.3,26.9l24.3-26.9h-9c-0.4,0-0.7-0.3-0.7-0.7v-54.7h-29.1v54.7
			c0,0.4-0.3,0.7-0.7,0.7H370.4z"/>
	</g>
	<g>
		<rect x="379.3" y="295.7" class="st4" width="30.5" height="5.7"/>
		<path d="M409.8,302.1h-30.5c-0.4,0-0.7-0.3-0.7-0.7v-5.7c0-0.4,0.3-0.7,0.7-0.7h30.5c0.4,0,0.7,0.3,0.7,0.7v5.7
			C410.5,301.8,410.2,302.1,409.8,302.1z M380,300.7h29.1v-4.3H380V300.7z"/>
	</g>
	<g>
		<rect x="379.3" y="285.2" class="st4" width="30.5" height="5.7"/>
		<path d="M409.8,291.6h-30.5c-0.4,0-0.7-0.3-0.7-0.7v-5.7c0-0.4,0.3-0.7,0.7-0.7h30.5c0.4,0,0.7,0.3,0.7,0.7v5.7
			C410.5,291.3,410.2,291.6,409.8,291.6z M380,290.2h29.1v-4.3H380V290.2z"/>
	</g>
</g>
<g>
	<path d="M383.1,473.4c-0.3,0-0.5-0.2-0.7-0.4c-0.1-0.4,0-0.8,0.4-0.9l11.6-4.6c0.4-0.1,0.8,0,0.9,0.4c0.1,0.4,0,0.8-0.4,0.9
		l-11.6,4.6C383.3,473.4,383.2,473.4,383.1,473.4z"/>
</g>
<g>
	<path d="M464.5,440.9c-0.3,0-0.5-0.2-0.7-0.4c-0.1-0.4,0-0.8,0.4-0.9l11.6-4.6c0.4-0.1,0.8,0,0.9,0.4c0.1,0.4,0,0.8-0.4,0.9
		l-11.6,4.6C464.6,440.9,464.6,440.9,464.5,440.9z"/>
</g>
<g>
	<path d="M371.2,478.1c-0.3,0-0.5-0.2-0.7-0.4c-0.1-0.4,0-0.8,0.4-0.9l7.3-2.9c0.4-0.1,0.8,0,0.9,0.4c0.1,0.4,0,0.8-0.4,0.9
		l-7.3,2.9C371.4,478.1,371.3,478.1,371.2,478.1z"/>
</g>
<g>
	<path d="M318,443.6c-0.3,0-0.5-0.2-0.7-0.4c-0.1-0.4,0-0.8,0.4-0.9l6.7-2.7c0.4-0.1,0.8,0,0.9,0.4c0.1,0.4,0,0.8-0.4,0.9l-6.7,2.7
		C318.1,443.6,318,443.6,318,443.6z"/>
</g>
<g>
	<path d="M307.4,448c-0.3,0-0.5-0.2-0.7-0.4c-0.1-0.4,0-0.8,0.4-0.9l5.4-2.2c0.4-0.1,0.8,0,0.9,0.4c0.1,0.4,0,0.8-0.4,0.9l-5.4,2.2
		C307.6,448,307.5,448,307.4,448z"/>
</g>
<g>
	<path d="M446.8,243c-0.4,0-0.7-0.3-0.7-0.7v-31.7c0-0.4,0.3-0.7,0.7-0.7s0.7,0.3,0.7,0.7v31.7C447.5,242.7,447.2,243,446.8,243z"/>
</g>
<g>
	<circle class="st4" cx="452.1" cy="291" r="24.5"/>
	<path d="M452.1,316.2c-13.9,0-25.2-11.3-25.2-25.2c0-13.9,11.3-25.2,25.2-25.2c13.9,0,25.2,11.3,25.2,25.2
		C477.3,304.9,466,316.2,452.1,316.2z M452.1,267.2c-13.1,0-23.8,10.7-23.8,23.8c0,13.1,10.7,23.8,23.8,23.8
		c13.1,0,23.8-10.7,23.8-23.8C475.9,277.9,465.3,267.2,452.1,267.2z"/>
</g>
<g>
	<g>
		<path d="M434.3,298.6v-1c6.2-4.3,9.3-7.6,9.3-9.9c0-2.3-1.5-3.5-4.5-3.5c-1.6,0-3,0.4-4.4,1.2v-1.1c1.4-0.7,2.8-1.1,4.4-1.1
			c3.7,0,5.6,1.5,5.6,4.5c0,2.6-2.9,5.9-8.8,9.9h8.8v1H434.3z"/>
	</g>
	<g>
		<path d="M456.6,298.6h-1.1V295h-8.7v-1l6.6-10.6h1.2l-6.7,10.6h7.5v-6h1.1v6l1.7,0.4v0.6h-1.7V298.6z"/>
	</g>
	<g>
		<path d="M460.8,298.6v-15.2h1.1v5.2c1.3-0.8,2.6-1.2,4-1.2c2.7,0,4.1,1.4,4.1,4.2v7h-1.1v-7.5c0-1.8-1-2.7-3-2.7
			c-1.3,0-2.7,0.5-4,1.4v8.7H460.8z"/>
	</g>
</g>
<g>
	<polyline class="st4" points="411.2,188.4 411.2,245.3 436,272.6 	"/>
	<path d="M436,273.3c-0.2,0-0.4-0.1-0.5-0.2l-24.8-27.3c-0.1-0.1-0.2-0.3-0.2-0.5v-56.9c0-0.4,0.3-0.7,0.7-0.7s0.7,0.3,0.7,0.7V245
		l24.6,27.1c0.3,0.3,0.2,0.7,0,1C436.3,273.2,436.2,273.3,436,273.3z"/>
</g>
<g>
	<path d="M460.8,344.6c-0.2,0-0.4-0.1-0.5-0.2c-0.3-0.3-0.3-0.7,0-1l21.4-21.4l-12.7-13.4c-0.3-0.3-0.3-0.7,0-1c0.3-0.3,0.7-0.3,1,0
		l13.1,13.9c0.3,0.3,0.3,0.7,0,1l-21.9,21.9C461.2,344.6,461,344.6,460.8,344.6z"/>
</g>
<g>
	<path d="M420.9,198.8c-0.2,0-0.4-0.1-0.5-0.2l-9.3-9.3l-9.3,9.3c-0.3,0.3-0.7,0.3-1,0c-0.3-0.3-0.3-0.7,0-1l9.8-9.8
		c0.3-0.3,0.7-0.3,1,0l9.8,9.8c0.3,0.3,0.3,0.7,0,1C421.3,198.8,421.1,198.8,420.9,198.8z"/>
</g>
<g>
	<path d="M460.8,344.6c-0.2,0-0.4-0.1-0.5-0.2c-0.1-0.1-0.2-0.3-0.2-0.5v-13.8c0-0.4,0.3-0.7,0.7-0.7s0.7,0.3,0.7,0.7v13.1l13.1,0
		c0.4,0,0.7,0.3,0.7,0.7c0,0.4-0.3,0.7-0.7,0.7L460.8,344.6z"/>
</g>
<g>
	<g>
		<g>
			<polygon class="st4" points="48.9,195.2 35.1,204.8 58.9,219.6 74.2,242.8 96.2,227.5 			"/>
			<path d="M74.2,243.5c0,0-0.1,0-0.1,0c-0.2,0-0.4-0.1-0.5-0.3l-15.3-23.1l-23.6-14.7c-0.2-0.1-0.3-0.3-0.3-0.6
				c0-0.2,0.1-0.5,0.3-0.6l13.8-9.6c0.2-0.2,0.6-0.2,0.8,0l47.3,32.3c0.2,0.1,0.3,0.3,0.3,0.6c0,0.2-0.1,0.4-0.3,0.6l-22,15.3
				C74.5,243.4,74.4,243.5,74.2,243.5z M36.4,204.8L59.2,219c0.1,0.1,0.2,0.1,0.2,0.2l15,22.6L95,227.5l-46.1-31.4L36.4,204.8z"/>
		</g>
		<g>
			<polygon class="st4" points="104.1,306.2 118.9,296 105.2,240.4 83.2,255.7 100.3,280 			"/>
			<path d="M104.1,306.9c-0.1,0-0.2,0-0.3-0.1c-0.2-0.1-0.4-0.3-0.4-0.5l-3.8-26.1l-17-24.2c-0.1-0.2-0.1-0.3-0.1-0.5
				c0-0.2,0.1-0.3,0.3-0.5l22-15.3c0.2-0.1,0.4-0.2,0.7-0.1c0.2,0.1,0.4,0.3,0.4,0.5l13.7,55.6c0.1,0.3,0,0.6-0.3,0.7l-14.8,10.3
				C104.4,306.9,104.3,306.9,104.1,306.9z M84.2,255.8l16.7,23.8c0.1,0.1,0.1,0.2,0.1,0.3l3.7,25.1l13.4-9.3l-13.4-54.1L84.2,255.8z
				"/>
		</g>
		<g>
			<path class="st4" d="M125,207.5l-28.7,20l-22,15.3l-21,14.5l-14.5,14.8l2.2,3.2l2.2,3.2l18.9-8.4l20.9-14.5l22-15.3l28.7-20
				c3.6-2.5,4.4-7.4,2-10.9C133.4,205.9,128.5,205.1,125,207.5z"/>
			<path d="M43.3,279.3c-0.2,0-0.4-0.1-0.6-0.3l-4.5-6.4c-0.2-0.3-0.2-0.7,0.1-0.9l14.5-14.8l71.8-49.9c1.4-1,3.1-1.5,4.9-1.5
				c2.8,0,5.4,1.4,7,3.7c2.7,3.9,1.7,9.2-2.1,11.9l-71.7,49.8l-19,8.4C43.5,279.3,43.4,279.3,43.3,279.3z M39.7,272.2l3.8,5.5
				l18.4-8.1l71.6-49.7c3.2-2.2,4-6.7,1.8-9.9c-1.3-1.9-3.5-3.1-5.9-3.1c-1.5,0-2.9,0.4-4.1,1.3l-71.7,49.8L39.7,272.2z"/>
		</g>
		<g>
			<polygon class="st4" points="21.6,264.1 18.6,266.2 33.5,280.6 41.8,299.6 44.8,297.5 43.3,278.6 41.1,275.4 38.8,272.1 			"/>
			<path d="M41.8,300.3c-0.1,0-0.1,0-0.2,0c-0.2-0.1-0.4-0.2-0.5-0.4L32.9,281l-14.8-14.3c-0.2-0.1-0.2-0.4-0.2-0.6
				c0-0.2,0.1-0.4,0.3-0.5l3-2.1c0.2-0.1,0.5-0.2,0.7-0.1l17.2,8c0.1,0.1,0.2,0.1,0.3,0.2l4.5,6.4c0.1,0.1,0.1,0.2,0.1,0.3l1.5,18.9
				c0,0.3-0.1,0.5-0.3,0.6l-3,2.1C42.1,300.3,41.9,300.3,41.8,300.3z M19.7,266.3L34,280.1c0.1,0.1,0.1,0.1,0.2,0.2l8,18.2l2-1.4
				l-1.5-18.3l-4.3-6.1l-16.6-7.8L19.7,266.3z"/>
		</g>
	</g>
	<g>
		<path d="M101.2,236.4c-0.2,0-0.4-0.1-0.6-0.3c-0.2-0.3-0.1-0.8,0.2-1l35.5-24.6c0.3-0.2,0.8-0.1,1,0.2c0.2,0.3,0.1,0.8-0.2,1
			l-35.5,24.6C101.5,236.3,101.4,236.4,101.2,236.4z"/>
	</g>
	<g>
		<path d="M85.6,319.8c-0.2,0-0.4-0.1-0.6-0.3c-0.2-0.3-0.1-0.8,0.2-1l18.5-12.9c0.3-0.2,0.8-0.1,1,0.2c0.2,0.3,0.1,0.8-0.2,1
			L86,319.7C85.9,319.8,85.7,319.8,85.6,319.8z"/>
	</g>
	<g>
		<path d="M16.7,218.4c-0.2,0-0.4-0.1-0.6-0.3c-0.2-0.3-0.1-0.8,0.2-1l18.5-12.9c0.3-0.2,0.8-0.1,1,0.2c0.2,0.3,0.1,0.8-0.2,1
			l-18.5,12.9C17,218.4,16.9,218.4,16.7,218.4z"/>
	</g>
	<g>
		<path d="M87.2,290.7c-0.2,0-0.4-0.1-0.6-0.3c-0.2-0.3-0.1-0.8,0.2-1l18.6-12.9c0.3-0.2,0.8-0.1,1,0.2c0.2,0.3,0.1,0.8-0.2,1
			l-18.6,12.9C87.5,290.6,87.4,290.7,87.2,290.7z"/>
	</g>
	<g>
		<path d="M45.3,229.7c-0.2,0-0.4-0.1-0.6-0.3c-0.2-0.3-0.1-0.8,0.2-1l18.6-12.9c0.3-0.2,0.8-0.1,1,0.2c0.2,0.3,0.1,0.8-0.2,1
			l-18.6,12.9C45.5,229.6,45.4,229.7,45.3,229.7z"/>
	</g>
</g>
<g>
	<path d="M186.7,475.9h-31.3c-0.4,0-0.7-0.3-0.7-0.7s0.3-0.7,0.7-0.7h31.3c0.4,0,0.7,0.3,0.7,0.7S187.1,475.9,186.7,475.9z"/>
</g>
<g>
	<path d="M206.3,475.2h-6.7c-0.4,0-0.7-0.3-0.7-0.7s0.3-0.7,0.7-0.7h6.7c0.4,0,0.7,0.3,0.7,0.7S206.7,475.2,206.3,475.2z"/>
</g>
<g>
	<path d="M220.4,35.9c-1.9,0-3.5-1.6-3.5-3.5s1.6-3.5,3.5-3.5c1.9,0,3.5,1.6,3.5,3.5S222.4,35.9,220.4,35.9z M220.4,30.3
		c-1.2,0-2.1,0.9-2.1,2.1c0,1.2,0.9,2.1,2.1,2.1c1.2,0,2.1-0.9,2.1-2.1C222.5,31.2,221.6,30.3,220.4,30.3z"/>
</g>
<g>
	<g>
		<path d="M187.3,91.4c-0.2,0-0.4-0.1-0.5-0.2L175,79.4c-0.3-0.3-0.3-0.7,0-1c0.3-0.3,0.7-0.3,1,0l11.9,11.9c0.3,0.3,0.3,0.7,0,1
			C187.7,91.4,187.5,91.4,187.3,91.4z"/>
	</g>
	<g>
		<path d="M175.5,91.4c-0.2,0-0.4-0.1-0.5-0.2c-0.3-0.3-0.3-0.7,0-1l11.9-11.9c0.3-0.3,0.7-0.3,1,0c0.3,0.3,0.3,0.7,0,1L176,91.2
			C175.8,91.4,175.6,91.4,175.5,91.4z"/>
	</g>
</g>
<g>
	<path d="M198.8,65.1h-11.5c-0.4,0-0.7-0.3-0.7-0.7c0-0.4,0.3-0.7,0.7-0.7h11.5c0.4,0,0.7,0.3,0.7,0.7
		C199.5,64.8,199.2,65.1,198.8,65.1z"/>
</g>
<g>
	<path d="M250,41.9h-14.8c-0.4,0-0.7-0.3-0.7-0.7c0-0.4,0.3-0.7,0.7-0.7H250c0.4,0,0.7,0.3,0.7,0.7C250.7,41.6,250.4,41.9,250,41.9z
		"/>
</g>
<g>
	<path d="M298.5,29.7h-17.1c-0.4,0-0.7-0.3-0.7-0.7c0-0.4,0.3-0.7,0.7-0.7h17.1c0.4,0,0.7,0.3,0.7,0.7
		C299.2,29.3,298.9,29.7,298.5,29.7z"/>
</g>
<g>
	<g>
		<path d="M290.9,46.3h-19.4c-0.4,0-0.7-0.3-0.7-0.7c-0.1-5.4-3.8-10-9-11.2c-0.3-0.1-0.6-0.4-0.5-0.7l0-0.2c0-0.1,0-0.2,0-0.2
			c0-11.1-9.1-20.2-20.2-20.2c-6.2,0-12,2.8-15.8,7.7c-0.2,0.2-0.5,0.3-0.8,0.2c-1.4-0.5-2.8-0.7-4.3-0.7c-7.2,0-13,5.9-13,13l0,0.2
			c0,0.4-0.3,0.7-0.7,0.7h-7.4c-6.3,0-11.6,5.2-11.7,11.5c0,0.4-0.3,0.7-0.7,0.7h-19.4c-0.4,0-0.7-0.3-0.7-0.7
			c0-0.4,0.3-0.7,0.7-0.7h18.8c0.5-6.8,6.2-12.2,13-12.2h6.7c0.3-7.7,6.6-13.9,14.4-13.9c1.4,0,2.9,0.2,4.3,0.7
			c4.1-5,10.2-7.8,16.6-7.8c11.9,0,21.6,9.7,21.6,21.6c5.4,1.5,9.2,6.2,9.5,11.7h18.8c0.4,0,0.7,0.3,0.7,0.7
			C291.6,46,291.3,46.3,290.9,46.3z"/>
	</g>
	<g>
		<path d="M308.2,46.3H299c-0.4,0-0.7-0.3-0.7-0.7c0-0.4,0.3-0.7,0.7-0.7h9.3c0.4,0,0.7,0.3,0.7,0.7C309,46,308.6,46.3,308.2,46.3z"
			/>
	</g>
	<g>
		<path d="M160.9,46.3h-11.4c-0.4,0-0.7-0.3-0.7-0.7c0-0.4,0.3-0.7,0.7-0.7h11.4c0.4,0,0.7,0.3,0.7,0.7
			C161.6,46,161.3,46.3,160.9,46.3z"/>
	</g>
</g>
</svg>
