<?xml version="1.0" encoding="utf-8"?>
<!-- Generator: Adobe Illustrator 21.0.2, SVG Export Plug-In . SVG Version: 6.00 Build 0)  -->
<svg version="1.1" id="Layer_1" xmlns="http://www.w3.org/2000/svg" xmlns:xlink="http://www.w3.org/1999/xlink" x="0px" y="0px"
	 viewBox="0 0 395 141" style="enable-background:new 0 0 395 141;" xml:space="preserve">
<style type="text/css">
	.st0{opacity:0.95;}
	.st1{fill:#414042;}
	.st2{fill:#FFCC4D;}
</style>
<g class="st0">
	<path class="st1" d="M84,5.6c0,0-0.8-0.5-2.1-0.4c-1.3,0.1-1.5,0.4-2.5,1.4L6.3,79.7c-2.7,2.7-2.7,7.1,0,9.9l46.9,46.9
		c2.4,2.4,6.2,2.4,8.5,0l49.7-49.7V33L84,5.6z M93,49.4c-4.4,0-8-3.6-8-8s3.6-8,8-8s8,3.6,8,8S97.4,49.4,93,49.4z"/>
	<path class="st2" d="M115.3,36.1v47.4L136,62.8c1.5-1.5,1.6-4,0-5.6L115.3,36.1z"/>
	<g>
		<path class="st2" d="M41.3,80l-12,11c-0.3,0.3-0.9,0.3-1.2-0.1l-4.3-4.7c-0.3-0.3-0.3-0.9,0.1-1.2l12-11c0.3-0.3,0.9-0.3,1.2,0.1
			l4.3,4.7C41.7,79.2,41.7,79.7,41.3,80z"/>
		<path class="st2" d="M49.1,87.8l-12,11c-0.3,0.3-0.9,0.3-1.2-0.1L31.6,94c-0.3-0.3-0.3-0.9,0.1-1.2l12-11c0.3-0.3,0.9-0.3,1.2,0.1
			l4.3,4.7C49.5,87,49.5,87.5,49.1,87.8z"/>
		<path class="st2" d="M56.4,95.1l-12,11c-0.3,0.3-0.9,0.3-1.2-0.1l-4.3-4.7c-0.3-0.3-0.3-0.9,0.1-1.2l12-11
			c0.3-0.3,0.9-0.3,1.2,0.1l4.3,4.7C56.8,94.3,56.8,94.8,56.4,95.1z"/>
		<path class="st2" d="M52.7,57.6L39.9,70.4c-0.9,0.9-0.9,2.4,0,3.3l16.9,16.9c2.4,2.4,2.4,6.4,0,8.9l-8.1,8.1c-1.2,1.2-1.2,3,0,4.2
			l3.2,3.2c1,1,2.7,1,3.7,0l25.6-25.6c1.9-1.9,1.9-5,0-6.9l-25-24.9C55.3,56.6,53.7,56.6,52.7,57.6z"/>
	</g>
	<path class="st1" d="M172.4,39.3c1.2,1,2.2,0.8,3.1,1.7c0.3,0.3,0.7,0.9,0.8,1.9c1,12.1,2.1,24.2,3.1,36.3
		c-7.4,6.8-14.2,10.7-19.1,13.1c-2.9,1.4-7.1,3.2-11.8,7.1c-7.1,6-7.3,10.2-7.2,11.7c0.1,0.8,0.2,1.5,0.4,2c2.1-0.2,4.7-0.6,7.6-1.6
		c5.4-1.9,9-5.1,11-7.1c6.5-5.1,13-10.3,19.5-15.4c0.3,1.9,1.1,5.1,3.4,8.3c1.3,1.8,3.1,3.7,4.6,4.6c4.8,2.9,13.5,0.2,21.1-6.6
		c-2-1.6-7.5-6.4-9.1-14.4c-0.6-2.9-0.5-5.5-0.2-7.5c11.2-10.8,22.5-21.6,33.7-32.4c-0.2-0.9-0.3-1.8-0.5-2.7
		c-1.8-0.1-4.4,0-7.3,0.8c-5.5,1.5-8.9,4.8-10.4,6.5c-5.9,6.2-11.8,12.4-17.7,18.7c-0.7-7.4-1.4-14.8-2.1-22.2
		c-0.7-1.9-2.3-5-5.4-6.1c-1.9-0.7-3.6-0.4-5-0.1c-3.2,0.6-7.7,1.3-13.8,1.6C171.3,38.1,171.7,38.8,172.4,39.3z"/>
	<path class="st1" d="M240.5,39.3c1.2,1,2.2,0.8,3.1,1.7c0.3,0.3,0.7,0.9,0.8,1.9c1,12.1,2.1,24.2,3.1,36.3
		c-7.4,6.8-14.2,10.7-19.1,13.1c-2.9,1.4-7.1,3.2-11.8,7.1c-7.1,6-7.3,10.2-7.2,11.7c0.1,0.8,0.2,1.5,0.4,2c2.1-0.2,4.7-0.6,7.6-1.6
		c5.4-1.9,9-5.1,11-7.1c6.5-5.1,13-10.3,19.5-15.4c0.3,1.9,1.1,5.1,3.4,8.3c1.3,1.8,3.1,3.7,4.6,4.6c4.8,2.9,13.5,0.2,21.1-6.6
		c-2-1.6-7.5-6.4-9.1-14.4c-0.6-2.9-0.5-5.5-0.2-7.5c11.2-10.8,22.5-21.6,33.7-32.4c-0.2-0.9-0.3-1.8-0.5-2.7
		c-1.8-0.1-4.4,0-7.3,0.8c-5.5,1.5-8.9,4.8-10.4,6.5c-5.9,6.2-11.8,12.4-17.7,18.7c-0.7-7.4-1.4-14.8-2.1-22.2
		c-0.7-1.9-2.3-5-5.4-6.1c-1.9-0.7-3.6-0.4-5-0.1c-3.2,0.6-7.7,1.3-13.8,1.6C239.5,38.1,239.8,38.8,240.5,39.3z"/>
	<g>
		<path class="st2" d="M391.9,65.7c-3.6,7.6-5.1,15.9-7.8,23.7c-0.8,2.1-1.3,4.4-2.4,6.4c-1,1.9-2.8,3.1-5.1,2.4
			c-2.6-0.8-2.1-3.1-1.7-5.1c1.2-5.9,4.4-11.3,3.4-18c-3.4,6.1-6.8,12.2-10.3,18.2c-2.2,3.8-4.7,6.8-9.7,4.5
			c-1.7-4.6-0.8-9.5-0.8-14.2l0.2-9c0-0.1,0-0.2,0-0.3c0.1-0.7,0-0.7,0,0c0,0,0,0,0,0l0-0.4l-0.4,1.1c-0.7,1.5-1,3.2-1.9,4.6
			c-1.6,4.8-3.5,9.5-5.2,14.3c-0.9,2.5-2.5,5-5.4,4.4c-3.6-0.8-2.5-4-1.8-6.3c2.9-10,6.1-20,9-30c1.5-5.5,5.5-6.1,10.2-5.7
			c5.8,0.5,3.8,5,3.9,8.2c0.2,5.5,0.1,10.9,0.1,18.2c4-6.9,7.6-12.1,10.1-17.8c1.2-2.8,3.1-5.9,6.7-7.8c0.7-0.4,5.1-2.2,7.9,0.5
			C392.8,59.5,394,62.3,391.9,65.7z"/>
		<path class="st2" d="M301.3,98.8c-6.6-0.5-12.4-1.5-13.8-8.9c-0.6-3.1,0.6-5.7,3.6-6.8c3.5-1.3,4.5,1.2,4.9,3.9
			c0.6,3.8,2.9,5.1,6.4,5.1c4.1,0,7.6-1.3,9.6-5.1c1.6-3,0.1-4.9-2.7-5.9c-2.9-1.1-5.9-1.7-8.7-2.8c-7.1-2.7-8.7-8.2-4.6-14.6
			c4.4-6.9,17.3-10.5,24.7-6.8c3.6,1.8,5.4,4.6,4.5,8.7c-0.5,2.2-2,3.7-4.1,4.1c-2.2,0.5-3.1-1.2-3.7-3c-1.4-4.6-4.7-5.8-9-4.5
			c-2.7,0.8-5.7,2-5.7,5.4c0,3.1,3.1,3.6,5.5,4.4c0.2,0.1,0.5,0.1,0.7,0.2c5.5,2,12.8,2.3,12.8,10.7c0,6.3-6.8,13.4-14.3,15.2
			C305.4,98.4,303.1,98.5,301.3,98.8z"/>
		<path class="st2" d="M329.2,98.7c-2.8-0.4-4-2.1-3.2-4.8c3.4-11.4,6.8-22.9,10.5-34.2c0.9-2.8,3.3-5,6.5-3.6
			c3.3,1.4,1.8,4.2,1.1,6.6c-3,10-6,19.9-9,29.9C334.1,95.6,332.7,98.1,329.2,98.7z"/>
	</g>
</g>
</svg>
