<?xml version="1.0" encoding="utf-8"?>
<!-- Generator: Adobe Illustrator 21.0.2, SVG Export Plug-In . SVG Version: 6.00 Build 0)  -->
<svg version="1.1" id="Layer_1" xmlns="http://www.w3.org/2000/svg" xmlns:xlink="http://www.w3.org/1999/xlink" x="0px" y="0px"
	 viewBox="0 0 244 87" style="enable-background:new 0 0 244 87;" xml:space="preserve">
<style type="text/css">
	.st0{opacity:0.95;}
	.st1{fill:#FFD000;}
	.st2{fill:#FFFFFF;}
</style>
<g class="st0">
	<path class="st1" d="M51.5,3c0,0-0.5-0.3-1.3-0.3c-0.8,0.1-1,0.3-1.6,0.8L3.3,48.9c-1.7,1.7-1.7,4.4,0,6.1l29.1,29.1
		c1.5,1.5,3.8,1.5,5.3,0l30.8-30.8V20L51.5,3z M57,30.2c-2.7,0-5-2.2-5-5s2.2-5,5-5s5,2.2,5,5S59.8,30.2,57,30.2z"/>
	<path class="st2" d="M70.8,21.9v29.4l12.8-12.8c1-1,1-2.5,0-3.5L70.8,21.9z"/>
	<g>
		<path class="st2" d="M24.9,49.2l-7.3,6.7c-0.3,0.2-0.6,0.2-0.9,0l-2.5-2.8c-0.2-0.3-0.2-0.6,0-0.9l7.3-6.7c0.3-0.2,0.6-0.2,0.9,0
			l2.5,2.8C25.2,48.6,25.2,49,24.9,49.2z"/>
		<path class="st2" d="M29.8,54l-7.3,6.7c-0.3,0.2-0.6,0.2-0.9,0l-2.5-2.8c-0.2-0.3-0.2-0.6,0-0.9l7.3-6.7c0.3-0.2,0.6-0.2,0.9,0
			l2.5,2.8C30,53.4,30,53.8,29.8,54z"/>
		<path class="st2" d="M34.3,58.6L27,65.2c-0.3,0.2-0.6,0.2-0.9,0l-2.5-2.8c-0.2-0.3-0.2-0.6,0-0.9l7.3-6.7c0.3-0.2,0.6-0.2,0.9,0
			l2.5,2.8C34.6,57.9,34.5,58.3,34.3,58.6z"/>
		<path class="st2" d="M32,35.3l-7.9,7.9c-0.6,0.6-0.6,1.5,0,2.1l10.5,10.5c1.5,1.5,1.5,4,0,5.5l-5,5c-0.7,0.7-0.7,1.9,0,2.6l2,2
			c0.6,0.6,1.7,0.6,2.3,0L49.8,55c1.2-1.2,1.2-3.1,0-4.3L34.3,35.3C33.7,34.6,32.6,34.6,32,35.3z"/>
	</g>
	<path class="st2" d="M106.2,23.9c0.7,0.6,1.4,0.5,1.9,1.1c0.2,0.2,0.4,0.6,0.5,1.1c0.6,7.5,1.3,15,1.9,22.5
		c-4.6,4.2-8.8,6.6-11.9,8.1c-1.8,0.9-4.4,2-7.3,4.4c-4.4,3.7-4.5,6.3-4.5,7.3c0,0.5,0.1,1,0.2,1.2c1.3-0.1,2.9-0.4,4.7-1
		c3.3-1.2,5.6-3.1,6.8-4.4c4-3.2,8.1-6.4,12.1-9.6c0.2,1.2,0.7,3.2,2.1,5.2c0.8,1.1,1.9,2.3,2.8,2.8c3,1.8,8.4,0.1,13.1-4.1
		c-1.2-1-4.7-3.9-5.6-8.9c-0.4-1.8-0.3-3.4-0.1-4.6C130,38.4,137,31.7,144,25c-0.1-0.6-0.2-1.1-0.3-1.7c-1.1-0.1-2.7,0-4.5,0.5
		c-3.4,1-5.5,3-6.5,4c-3.7,3.9-7.3,7.7-11,11.6c-0.4-4.6-0.9-9.2-1.3-13.8c-0.4-1.2-1.4-3.1-3.3-3.8c-1.2-0.4-2.2-0.2-3.1-0.1
		c-2,0.4-4.8,0.8-8.5,1C105.6,23.1,105.8,23.6,106.2,23.9z"/>
	<path class="st2" d="M148.5,23.9c0.7,0.6,1.4,0.5,1.9,1.1c0.2,0.2,0.4,0.6,0.5,1.1c0.6,7.5,1.3,15,1.9,22.5
		c-4.6,4.2-8.8,6.6-11.9,8.1c-1.8,0.9-4.4,2-7.3,4.4c-4.4,3.7-4.5,6.3-4.5,7.3c0,0.5,0.1,1,0.2,1.2c1.3-0.1,2.9-0.4,4.7-1
		c3.3-1.2,5.6-3.1,6.8-4.4c4-3.2,8.1-6.4,12.1-9.6c0.2,1.2,0.7,3.2,2.1,5.2c0.8,1.1,1.9,2.3,2.8,2.8c3,1.8,8.4,0.1,13.1-4.1
		c-1.2-1-4.7-3.9-5.6-8.9c-0.4-1.8-0.3-3.4-0.1-4.6c7-6.7,13.9-13.4,20.9-20.1c-0.1-0.6-0.2-1.1-0.3-1.7c-1.1-0.1-2.7,0-4.5,0.5
		c-3.4,1-5.5,3-6.5,4c-3.7,3.9-7.3,7.7-11,11.6c-0.4-4.6-0.9-9.2-1.3-13.8c-0.4-1.2-1.4-3.1-3.3-3.8c-1.2-0.4-2.2-0.2-3.1-0.1
		c-2,0.4-4.8,0.8-8.5,1C147.8,23.1,148.1,23.6,148.5,23.9z"/>
	<g>
		<path class="st1" d="M242.3,40.3c-2.3,4.7-3.1,9.8-4.8,14.7c-0.5,1.3-0.8,2.7-1.5,4c-0.6,1.2-1.8,1.9-3.1,1.5
			c-1.6-0.5-1.3-1.9-1-3.2c0.7-3.6,2.7-7,2.1-11.1c-2.1,3.8-4.2,7.5-6.4,11.3c-1.3,2.3-2.9,4.2-6,2.8c-1-2.9-0.5-5.9-0.5-8.8
			l0.1-5.6c0-0.1,0-0.1,0-0.2c0-0.5,0-0.4,0,0c0,0,0,0,0,0l0-0.2l-0.2,0.7c-0.4,0.9-0.6,2-1.2,2.9c-1,3-2.2,5.9-3.2,8.9
			c-0.6,1.6-1.6,3.1-3.4,2.7c-2.2-0.5-1.6-2.4-1.1-3.9c1.8-6.2,3.8-12.4,5.6-18.6c1-3.4,3.4-3.8,6.3-3.5c3.6,0.3,2.4,3.1,2.4,5.1
			c0.1,3.4,0,6.8,0,11.3c2.5-4.3,4.7-7.5,6.2-11c0.8-1.7,1.9-3.6,4.2-4.9c0.4-0.2,3.1-1.3,4.9,0.3C242.9,36.4,243.6,38.1,242.3,40.3
			z"/>
		<path class="st1" d="M186.2,60.8c-4.1-0.3-7.7-0.9-8.6-5.5c-0.4-1.9,0.4-3.5,2.2-4.2c2.2-0.8,2.8,0.7,3.1,2.4
			c0.4,2.3,1.8,3.1,4,3.1c2.6,0,4.7-0.8,6-3.1c1-1.9,0.1-3-1.7-3.7c-1.8-0.7-3.6-1.1-5.4-1.8c-4.4-1.7-5.4-5.1-2.8-9
			c2.8-4.3,10.7-6.5,15.3-4.2c2.2,1.1,3.4,2.8,2.8,5.4c-0.3,1.3-1.2,2.3-2.5,2.5c-1.4,0.3-1.9-0.7-2.3-1.9c-0.9-2.8-2.9-3.6-5.6-2.8
			c-1.7,0.5-3.5,1.3-3.5,3.3c0,1.9,1.9,2.3,3.4,2.7c0.2,0,0.3,0,0.5,0.1c3.4,1.3,7.9,1.4,7.9,6.6c0,3.9-4.2,8.3-8.9,9.4
			C188.7,60.5,187.3,60.6,186.2,60.8z"/>
		<path class="st1" d="M203.4,60.7c-1.7-0.3-2.5-1.3-2-3c2.1-7.1,4.2-14.2,6.5-21.2c0.6-1.7,2.1-3.1,4-2.3c2,0.8,1.1,2.6,0.7,4.1
			c-1.9,6.2-3.7,12.3-5.6,18.5C206.5,58.8,205.6,60.3,203.4,60.7z"/>
	</g>
</g>
</svg>
